<?xml version="1.0" encoding="UTF-8"?>
<svg version="1.1" xmlns="http://www.w3.org/2000/svg" width="348" height="348">
<path d="M0 0 C1.90948185 0.01665186 3.81901707 0.02796262 5.7285614 0.03417969 C9.71858937 0.06007095 13.70480002 0.12766633 17.69360352 0.22949219 C22.80963331 0.35995263 27.92330553 0.42079175 33.04079914 0.45504761 C37.92335556 0.48974475 42.80534358 0.55472088 47.6875 0.625 C48.61965143 0.63670227 49.55180286 0.64840454 50.51220131 0.66046143 C53.14332476 0.69983959 55.77304001 0.76026097 58.40356445 0.828125 C59.18437378 0.83776276 59.96518311 0.84740051 60.76965332 0.85733032 C66.03648671 1.02581981 66.03648671 1.02581981 68.44775391 2.79751587 C69.62865017 4.548368 70.71068491 6.28700242 71.7109375 8.1484375 C72.11151367 8.88441162 72.51208984 9.62038574 72.92480469 10.37866211 C73.55563965 11.55247437 73.55563965 11.55247437 74.19921875 12.75 C77.85737547 19.45595067 81.68025404 25.98380841 85.73046875 32.4609375 C87.33308532 35.08276197 88.81785672 37.72606142 90.26171875 40.4375 C93.64831856 46.77221425 97.38501362 52.8922651 101.11035156 59.03149414 C102.58830506 61.47300592 104.05083626 63.92324521 105.51171875 66.375 C106.01300293 67.19323242 106.51428711 68.01146484 107.03076172 68.85449219 C107.73096436 70.03640137 107.73096436 70.03640137 108.4453125 71.2421875 C109.0784436 72.29188721 109.0784436 72.29188721 109.72436523 73.36279297 C110.70552937 75.87031385 110.46791111 76.8869924 109.51171875 79.375 C108.57543945 81.21508789 108.57543945 81.21508789 107.4375 83.09765625 C107.01662109 83.80212891 106.59574219 84.50660156 106.16210938 85.23242188 C105.49985352 86.32393555 105.49985352 86.32393555 104.82421875 87.4375 C101.42696458 93.07538592 98.1787966 98.76740248 95.04516602 104.55639648 C92.52329851 109.19179855 89.92379319 113.78285632 87.32421875 118.375 C86.49144409 119.84755249 86.49144409 119.84755249 85.6418457 121.34985352 C80.32840314 130.72869573 74.92964795 140.05616177 69.51171875 149.375 C85.35171875 149.87 85.35171875 149.87 101.51171875 150.375 C101.50011719 147.93222656 101.48851562 145.48945313 101.4765625 142.97265625 C101.46877191 140.61629364 101.46269516 138.25993244 101.45678711 135.90356445 C101.45174701 134.26130536 101.44491497 132.61905077 101.4362793 130.97680664 C101.42419949 128.62124521 101.41848736 126.26574291 101.4140625 123.91015625 C101.40890121 123.17160904 101.40373993 122.43306183 101.39842224 121.6721344 C101.39822625 119.90601912 101.44977156 118.14002854 101.51171875 116.375 C102.51171875 115.375 102.51171875 115.375 106.02172852 115.26147461 C107.58220297 115.26163374 109.14268268 115.26732858 110.703125 115.27734375 C111.52296371 115.2787587 112.34280243 115.28017365 113.18748474 115.28163147 C115.81643257 115.28724711 118.44529648 115.29980221 121.07421875 115.3125 C122.85221232 115.31751299 124.63020721 115.32207624 126.40820312 115.32617188 C130.77610033 115.33637248 135.14381515 115.35594468 139.51171875 115.375 C139.51171875 126.925 139.51171875 138.475 139.51171875 150.375 C151.06171875 150.375 162.61171875 150.375 174.51171875 150.375 C174.53462714 155.62611196 174.55455438 160.87705178 174.56665039 166.12817383 C174.57169093 167.91594021 174.57852329 169.70370245 174.5871582 171.49145508 C174.59923605 174.05551168 174.60494969 176.61951397 174.609375 179.18359375 C174.61453629 179.9877623 174.61969757 180.79193085 174.62501526 181.62046814 C174.6252109 183.53901715 174.57373858 185.45745368 174.51171875 187.375 C173.51171875 188.375 173.51171875 188.375 170.27709961 188.48852539 C168.8435775 188.48827438 167.41004933 188.48271608 165.9765625 188.47265625 C164.97550476 188.47114563 164.97550476 188.47114563 163.95422363 188.46960449 C161.45253795 188.46435808 158.95087669 188.45039691 156.44921875 188.4375 C148.06515625 188.4065625 148.06515625 188.4065625 139.51171875 188.375 C139.51171875 199.925 139.51171875 211.475 139.51171875 223.375 C126.97171875 223.375 114.43171875 223.375 101.51171875 223.375 C101.48078125 215.269375 101.48078125 215.269375 101.44921875 207 C101.44011475 205.29537598 101.43101074 203.59075195 101.42163086 201.83447266 C101.41871073 200.48600341 101.4161624 199.13753328 101.4140625 197.7890625 C101.40894653 197.08676514 101.40383057 196.38446777 101.39855957 195.66088867 C101.39764695 190.6031436 101.39764695 190.6031436 102.51171875 188.375 C90.63171875 188.375 78.75171875 188.375 66.51171875 188.375 C66.55296875 182.620625 66.59421875 176.86625 66.63671875 170.9375 C66.44840474 157.30155858 65.80506166 147.09806014 56.92431641 136.20410156 C54.34326425 132.86202711 52.35001841 129.16171442 50.26171875 125.5 C49.42822254 124.08136131 48.59362778 122.66336736 47.7578125 121.24609375 C45.39546854 117.19931294 43.14857212 113.09575108 40.9296875 108.96875 C38.83026359 105.12848147 36.60714499 101.36338226 34.390625 97.58984375 C31.05218139 91.87770426 27.78598167 86.12409541 24.51171875 80.375 C21.6901916 83.89968376 19.52902689 87.70179708 17.32421875 91.625 C16.77217773 92.59953125 16.77217773 92.59953125 16.20898438 93.59375 C15.30742972 95.18610627 14.40923458 96.7803638 13.51171875 98.375 C12.85171875 98.375 12.19171875 98.375 11.51171875 98.375 C11.39578369 98.94275146 11.27984863 99.51050293 11.16040039 100.09545898 C10.44489491 102.60982656 9.42318116 104.57460211 8.1328125 106.84765625 C7.63177002 107.73372559 7.13072754 108.61979492 6.61450195 109.53271484 C6.0649585 110.49129395 5.51541504 111.44987305 4.94921875 112.4375 C4.3771167 113.44248535 3.80501465 114.4474707 3.21557617 115.48291016 C-3.2819997 126.84735242 -9.98029683 138.09306382 -16.68017578 149.33886719 C-24.98147556 163.26865798 -24.98147556 163.26865798 -32.86328125 177.4375 C-34.99711599 181.29481664 -37.24201459 185.08236042 -39.48828125 188.875 C-42.70445314 194.30997577 -45.85046951 199.7640874 -48.83984375 205.328125 C-51.14671529 209.59201078 -53.50625249 213.82618522 -55.86328125 218.0625 C-56.31703125 218.878396 -56.77078125 219.69429199 -57.23828125 220.53491211 C-58.3212523 222.48181003 -59.40457586 224.42851076 -60.48828125 226.375 C-61.47828125 226.375 -62.46828125 226.375 -63.48828125 226.375 C-63.77960938 225.83721924 -64.0709375 225.29943848 -64.37109375 224.74536133 C-69.60423461 215.10498607 -74.88410332 205.55520502 -80.71484375 196.26171875 C-83.49607955 191.73455298 -85.98389866 187.05898935 -88.48828125 182.375 C-91.45699998 176.95007751 -94.49859197 171.56580399 -97.55078125 166.1875 C-97.87933105 165.60508545 -98.20788086 165.0226709 -98.54638672 164.42260742 C-100.17284855 161.56674853 -101.83639448 158.90554781 -103.796875 156.26171875 C-105.48828125 153.375 -105.48828125 153.375 -105.24707031 150.98681641 C-104.45963327 148.27639121 -103.44255905 146.14485355 -102.0390625 143.69921875 C-101.52762695 142.80082275 -101.01619141 141.90242676 -100.48925781 140.97680664 C-99.93206055 140.01508545 -99.37486328 139.05336426 -98.80078125 138.0625 C-98.22424805 137.05501709 -97.64771484 136.04753418 -97.05371094 135.00952148 C-92.23556906 126.61024047 -87.34943748 118.24990581 -82.45605469 109.89428711 C-78.44369965 103.03843763 -74.50818447 96.14591421 -70.6484375 89.203125 C-67.67042805 83.88378399 -64.56898897 78.63524218 -61.48828125 73.375 C-52.03688876 57.28064621 -52.03688876 57.28064621 -42.80078125 41.0625 C-39.55029606 35.24675885 -36.25656309 29.45767919 -32.92578125 23.6875 C-32.50272705 22.95168701 -32.07967285 22.21587402 -31.64379883 21.45776367 C-30.79352314 19.98848858 -29.92191292 18.53133739 -29.02864075 17.08779907 C-27.39506448 14.34333149 -27.39506448 14.34333149 -26.14303589 11.10466003 C-20.38402102 -1.18061851 -12.52424746 -0.40681359 0 0 Z " fill="#08C7EA" transform="translate(139.48828125,59.625)"/>
<path d="M0 0 C0.433125 0.598125 0.86625 1.19625 1.3125 1.8125 C2.86973758 3.97610788 2.86973758 3.97610788 4.59375 5.3984375 C7.09411695 8.24607764 7.35781161 11.9800741 8.15625 15.6015625 C8.4346875 16.39304687 8.713125 17.18453125 9 18 C10.485 18.495 10.485 18.495 12 19 C13.0625 21.75 13.0625 21.75 14 25 C14.65411685 26.67163195 15.31653318 28.34015202 16 30 C16.66 30 17.32 30 18 30 C18.47050781 30.95261719 18.94101563 31.90523437 19.42578125 32.88671875 C20.05457916 34.15369961 20.68349148 35.42062369 21.3125 36.6875 C21.7755957 37.62625977 21.7755957 37.62625977 22.24804688 38.58398438 C25.25188732 44.96179063 25.25188732 44.96179063 29.5 50.5 C32.36534024 53.36534024 33.88200722 56.70501805 35.375 60.4375 C36.82924657 64.1083992 36.82924657 64.1083992 39.625 66.875 C42.68586518 70.90245418 43.34023266 73.97320996 43 79 C41.76510451 82.45491664 39.99057665 85.45145999 38.0625 88.5625 C37.58103516 89.38041016 37.09957031 90.19832031 36.60351562 91.04101562 C35.42245435 93.04063421 34.22175042 95.02507638 33 97 C32.34 97 31.68 97 31 97 C30.88406494 97.56775146 30.76812988 98.13550293 30.64868164 98.72045898 C29.93317616 101.23482656 28.91146241 103.19960211 27.62109375 105.47265625 C27.12005127 106.35872559 26.61900879 107.24479492 26.1027832 108.15771484 C25.55323975 109.11629395 25.00369629 110.07487305 24.4375 111.0625 C23.86539795 112.06748535 23.2932959 113.0724707 22.70385742 114.10791016 C16.20628155 125.47235242 9.50798442 136.71806382 2.80810547 147.96386719 C-5.49319431 161.89365798 -5.49319431 161.89365798 -13.375 176.0625 C-15.50883474 179.91981664 -17.75373334 183.70736042 -20 187.5 C-23.21617189 192.93497577 -26.36218826 198.3890874 -29.3515625 203.953125 C-31.65843404 208.21701078 -34.01797124 212.45118522 -36.375 216.6875 C-36.82875 217.503396 -37.2825 218.31929199 -37.75 219.15991211 C-38.83297105 221.10681003 -39.91629461 223.05351076 -41 225 C-41.99 225 -42.98 225 -44 225 C-44.29132813 224.46221924 -44.58265625 223.92443848 -44.8828125 223.37036133 C-50.11595336 213.72998607 -55.39582207 204.18020502 -61.2265625 194.88671875 C-64.0077983 190.35955298 -66.49561741 185.68398935 -69 181 C-71.96871873 175.57507751 -75.01031072 170.19080399 -78.0625 164.8125 C-78.3910498 164.23008545 -78.71959961 163.6476709 -79.05810547 163.04760742 C-80.6845673 160.19174853 -82.34811323 157.53054781 -84.30859375 154.88671875 C-86 152 -86 152 -85.75878906 149.61181641 C-84.97135202 146.90139121 -83.9542778 144.76985355 -82.55078125 142.32421875 C-82.0393457 141.42582275 -81.52791016 140.52742676 -81.00097656 139.60180664 C-80.4437793 138.64008545 -79.88658203 137.67836426 -79.3125 136.6875 C-78.7359668 135.68001709 -78.15943359 134.67253418 -77.56542969 133.63452148 C-72.74728781 125.23524047 -67.86115623 116.87490581 -62.96777344 108.51928711 C-58.9554184 101.66343763 -55.01990322 94.77091421 -51.16015625 87.828125 C-48.1821468 82.50878399 -45.08070772 77.26024218 -42 72 C-32.54860751 55.90564621 -32.54860751 55.90564621 -23.3125 39.6875 C-15.82410917 26.28933323 -8.15024906 13.00770409 0 0 Z " fill="#0652FC" transform="translate(120,61)"/>
<path d="M0 0 C1.56047445 0.00015913 3.12095416 0.00585397 4.68139648 0.01586914 C5.5012352 0.01728409 6.32107391 0.01869904 7.16575623 0.02015686 C9.79470406 0.0257725 12.42356797 0.0383276 15.05249023 0.05102539 C16.8304838 0.05603838 18.60847869 0.06060163 20.38647461 0.06469727 C24.75437181 0.07489787 29.12208664 0.09447007 33.48999023 0.11352539 C33.48999023 11.66352539 33.48999023 23.21352539 33.48999023 35.11352539 C45.03999023 35.11352539 56.58999023 35.11352539 68.48999023 35.11352539 C68.51289862 40.36463735 68.53282586 45.61557717 68.54492188 50.86669922 C68.54996242 52.6544656 68.55679478 54.44222784 68.56542969 56.22998047 C68.57750754 58.79403707 68.58322118 61.35803936 68.58764648 63.92211914 C68.59280777 64.72628769 68.59796906 65.53045624 68.60328674 66.35899353 C68.60348238 68.27754254 68.55201006 70.19597907 68.48999023 72.11352539 C67.48999023 73.11352539 67.48999023 73.11352539 64.25537109 73.22705078 C62.82184899 73.22679977 61.38832082 73.22124148 59.95483398 73.21118164 C58.95377625 73.20967102 58.95377625 73.20967102 57.93249512 73.20812988 C55.43080944 73.20288348 52.92914817 73.1889223 50.42749023 73.17602539 C44.83811523 73.15540039 39.24874023 73.13477539 33.48999023 73.11352539 C33.48999023 84.66352539 33.48999023 96.21352539 33.48999023 108.11352539 C20.94999023 108.11352539 8.40999023 108.11352539 -4.51000977 108.11352539 C-4.53063477 102.70977539 -4.55125977 97.30602539 -4.57250977 91.73852539 C-4.58161377 90.03390137 -4.59071777 88.32927734 -4.60009766 86.57299805 C-4.60301779 85.2245288 -4.60556612 83.87605867 -4.60766602 82.52758789 C-4.61278198 81.82529053 -4.61789795 81.12299316 -4.62316895 80.39941406 C-4.62408157 75.34166899 -4.62408157 75.34166899 -3.51000977 73.11352539 C-15.39000977 73.11352539 -27.27000977 73.11352539 -39.51000977 73.11352539 C-39.53291816 67.86241343 -39.55284539 62.61147361 -39.56494141 57.36035156 C-39.56998195 55.57258518 -39.57681431 53.78482295 -39.58544922 51.99707031 C-39.59752707 49.43301371 -39.60324071 46.86901142 -39.60766602 44.30493164 C-39.6128273 43.50076309 -39.61798859 42.69659454 -39.62330627 41.86805725 C-39.62350192 39.94950824 -39.57202959 38.03107171 -39.51000977 36.11352539 C-38.51000977 35.11352539 -38.51000977 35.11352539 -35.27539062 35 C-33.8418685 35.00015908 -32.40834064 35.00585132 -30.97485352 35.01586914 C-29.84497765 35.01799156 -29.84497765 35.01799156 -28.692276 35.02015686 C-26.27731417 35.02577163 -23.86244376 35.03832656 -21.44750977 35.05102539 C-19.81404756 35.05603849 -18.18058391 35.06060173 -16.54711914 35.06469727 C-12.53471392 35.07574585 -8.52237736 35.09302033 -4.51000977 35.11352539 C-4.51524658 34.08880127 -4.5204834 33.06407715 -4.52587891 32.00830078 C-4.54392945 28.21957263 -4.55544196 24.4308483 -4.56494141 20.64208984 C-4.5699815 18.99983075 -4.57681355 17.35757616 -4.58544922 15.71533203 C-4.59752902 13.3597706 -4.60324115 11.0042683 -4.60766602 8.64868164 C-4.6128273 7.91013443 -4.61798859 7.17158722 -4.62330627 6.41065979 C-4.62350226 4.64454451 -4.57195695 2.87855393 -4.51000977 1.11352539 C-3.51000977 0.11352539 -3.51000977 0.11352539 0 0 Z " fill="#09C7EA" transform="translate(245.510009765625,174.886474609375)"/>
<path d="M0 0 C27.72 0 55.44 0 84 0 C83.09591097 6.32862318 82.59765225 8.26908344 79.3125 13.25 C76.14907169 18.09035245 73.31487793 23.0145975 70.56860352 28.10449219 C66.39324374 35.81184891 62.01574219 43.40946328 57.68261719 51.02880859 C56.06000834 53.89403635 54.45424247 56.76812112 52.8515625 59.64453125 C51.88061244 61.3674153 50.90927813 63.09008288 49.9375 64.8125 C49.49704346 65.61236328 49.05658691 66.41222656 48.6027832 67.23632812 C48.18601318 67.96916016 47.76924316 68.70199219 47.33984375 69.45703125 C46.98269287 70.09616455 46.62554199 70.73529785 46.25756836 71.39379883 C44.73868671 73.33375658 43.24960904 74.05518198 41 75 C40.39414063 73.97003906 39.78828125 72.94007813 39.1640625 71.87890625 C38.76413086 71.19908691 38.36419922 70.51926758 37.95214844 69.81884766 C37.0567392 68.29652018 36.16156222 66.77405608 35.26660156 65.25146484 C32.95649275 61.32202294 30.64310235 57.39461738 28.3203125 53.47265625 C24.23712538 46.57069331 20.21613947 39.65813476 16.41796875 32.59375 C14.86941147 29.76112732 13.25618024 26.97333591 11.625 24.1875 C11.04878906 23.20136719 10.47257813 22.21523437 9.87890625 21.19921875 C8.89307616 19.52064319 7.90622282 17.84264079 6.90966797 16.17041016 C5.78635207 14.28465388 4.67396684 12.39275828 3.5625 10.5 C3.03100342 9.6186438 3.03100342 9.6186438 2.48876953 8.71948242 C0.56801953 5.42697219 0 3.93392245 0 0 Z " fill="#05ECF9" transform="translate(164,136)"/>
<path d="M0 0 C1.18682625 0.00539291 1.18682625 0.00539291 2.39762878 0.01089478 C3.22682831 0.01074875 4.05602783 0.01060272 4.91035461 0.01045227 C7.664521 0.01115166 10.41862063 0.01894523 13.17277527 0.02676392 C15.07706668 0.028628 16.98135857 0.03005195 18.88565063 0.03105164 C23.90804865 0.03487754 28.93041794 0.04470843 33.95280457 0.05575562 C39.07365022 0.06596819 44.1945005 0.07054892 49.31535339 0.07559204 C59.37070459 0.08633064 69.42603442 0.10340792 79.48136902 0.12442017 C78.114045 4.38901085 76.55460823 7.97648247 74.23136902 11.81192017 C71.96497521 15.60940959 69.75521386 19.4126546 67.66886902 23.31192017 C65.05516259 28.15393395 62.28471241 32.89089742 59.48136902 37.62442017 C56.26521457 43.05940767 53.11918143 48.51350631 50.12980652 54.07754517 C47.82293498 58.34143095 45.46339777 62.57560539 43.10636902 66.81192017 C42.65261902 67.62781616 42.19886902 68.44371216 41.73136902 69.28433228 C40.64839797 71.2312302 39.56507441 73.17793093 38.48136902 75.12442017 C37.49136902 75.12442017 36.50136902 75.12442017 35.48136902 75.12442017 C35.19004089 74.5866394 34.89871277 74.04885864 34.59855652 73.49478149 C29.36541566 63.85440624 24.08554694 54.30462519 18.25480652 45.01113892 C15.47357072 40.48397315 12.98575161 35.80840951 10.48136902 31.12442017 C6.25333004 23.39826425 1.85928791 15.76619509 -2.51863098 8.12442017 C-3.85252012 5.79140392 -5.18561708 3.4579367 -6.51863098 1.12442017 C-4.74141408 -0.65279674 -2.36615898 0.00453918 0 0 Z " fill="#0F02DB" transform="translate(40.51863098144531,210.87557983398438)"/>
<path d="M0 0 C0.433125 0.598125 0.86625 1.19625 1.3125 1.8125 C2.86973758 3.97610788 2.86973758 3.97610788 4.59375 5.3984375 C7.09411695 8.24607764 7.35781161 11.9800741 8.15625 15.6015625 C8.4346875 16.39304687 8.713125 17.18453125 9 18 C9.99 18.33 10.98 18.66 12 19 C13.0625 21.75 13.0625 21.75 14 25 C14.65411685 26.67163195 15.31653318 28.34015202 16 30 C16.66 30 17.32 30 18 30 C18.47050781 30.95261719 18.94101563 31.90523437 19.42578125 32.88671875 C20.05457916 34.15369961 20.68349148 35.42062369 21.3125 36.6875 C21.7755957 37.62625977 21.7755957 37.62625977 22.24804688 38.58398438 C25.25188732 44.96179063 25.25188732 44.96179063 29.5 50.5 C32.36534024 53.36534024 33.88200722 56.70501805 35.375 60.4375 C36.82924657 64.1083992 36.82924657 64.1083992 39.625 66.875 C42.55314706 70.72782508 43.37678752 74.1693908 43 79 C42.34 79.66 41.68 80.32 41 81 C41.33 79.35 41.66 77.7 42 76 C14.61 76 -12.78 76 -41 76 C-42 72 -42 72 -40.97119141 69.59667969 C-40.43671387 68.71399414 -39.90223633 67.83130859 -39.3515625 66.921875 C-38.76286377 65.93405029 -38.17416504 64.94622559 -37.56762695 63.9284668 C-36.92656006 62.87957275 -36.28549316 61.83067871 -35.625 60.75 C-34.31805238 58.56437468 -33.01206276 56.37817622 -31.70703125 54.19140625 C-30.74724365 52.59449951 -30.74724365 52.59449951 -29.76806641 50.96533203 C-27.54830486 47.24243452 -25.41497093 43.477474 -23.3125 39.6875 C-15.82894605 26.28696104 -8.15003511 13.00736262 0 0 Z " fill="#3074FD" transform="translate(120,61)"/>
<path d="M0 0 C0.66 0 1.32 0 2 0 C2.35336426 0.66064453 2.70672852 1.32128906 3.07080078 2.00195312 C7.36819648 9.96703822 11.96814612 17.72264884 16.671875 25.453125 C17.23132813 26.38640625 17.79078125 27.3196875 18.3671875 28.28125 C18.87362793 29.11720703 19.38006836 29.95316406 19.90185547 30.81445312 C21 33 21 33 21 36 C21.66 36 22.32 36 23 36 C23.36351563 36.75023437 23.72703125 37.50046875 24.1015625 38.2734375 C27.43777311 45.06562013 31.03393758 51.5607694 35 58 C36.63151562 60.68358838 38.25384993 63.37264109 39.875 66.0625 C40.28081299 66.73063721 40.68662598 67.39877441 41.10473633 68.0871582 C44 72.8864974 44 72.8864974 44 74 C1.43 74.495 1.43 74.495 -42 75 C-41.13501415 71.54005659 -40.27722007 69.45032485 -38.55078125 66.421875 C-38.0393457 65.52025635 -37.52791016 64.6186377 -37.00097656 63.68969727 C-36.4437793 62.71959717 -35.88658203 61.74949707 -35.3125 60.75 C-34.7359668 59.73800537 -34.15943359 58.72601074 -33.56542969 57.68334961 C-28.75746186 49.26551806 -23.87295471 40.89236557 -18.97216797 32.52832031 C-15.56993607 26.71645361 -12.21911482 20.88076059 -8.9375 15 C-2.91380361 4.2382598 -2.91380361 4.2382598 0 0 Z " fill="#0633FC" transform="translate(76,137)"/>
<path d="M0 0 C28.38 0 56.76 0 86 0 C86 0.66 86 1.32 86 2 C85.01 2 84.02 2 83 2 C82.73703125 2.70511719 82.4740625 3.41023438 82.203125 4.13671875 C80.92030854 7.18965533 79.40878104 9.94569364 77.75 12.8125 C77.23771851 13.70050293 77.23771851 13.70050293 76.71508789 14.60644531 C75.48144316 16.74040348 74.24139776 18.87054265 73 21 C72.2562915 22.27593018 72.2562915 22.27593018 71.49755859 23.57763672 C69.21780865 27.4868654 66.93671462 31.39530684 64.65429688 35.30297852 C60.33650883 42.69840016 56.034419 50.10271072 51.75076294 57.51794434 C50.7674705 59.21976318 49.78303748 60.92092284 48.79858398 62.62207031 C48.19989502 63.65944336 47.60120605 64.69681641 46.984375 65.765625 C46.45553711 66.68118164 45.92669922 67.59673828 45.38183594 68.54003906 C44.18708183 70.66695467 43.06657866 72.80666356 42 75 C41.62875 73.845 41.2575 72.69 40.875 71.5 C39.34838902 67.37815036 37.13527356 64.37138149 34.42578125 60.94921875 C31.90742767 57.50631893 30.38107202 53.81009212 29.5 49.625 C29.335 49.08875 29.17 48.5525 29 48 C27.515 47.505 27.515 47.505 26 47 C21.87789606 41.17947907 18.43492096 35.01516914 17 28 C16.34 28 15.68 28 15 28 C12.82377815 25.16431698 11.175015 22.91882873 10.5 19.375 C10.20706284 16.83143534 10.20706284 16.83143534 8 15.1875 C5.06208984 11.97416076 5.28584449 9.2876673 5 5 C4.01 4.67 3.02 4.34 2 4 C1.34 2.68 0.68 1.36 0 0 Z " fill="#10ACE2" transform="translate(121,63)"/>
<path d="M0 0 C1.47583954 0.00025104 2.95168496 0.00581025 4.42749023 0.01586914 C5.11452026 0.01687622 5.80155029 0.0178833 6.50939941 0.0189209 C9.08497783 0.02416763 11.66053252 0.0381288 14.23608398 0.05102539 C19.99045898 0.07165039 25.74483398 0.09227539 31.67358398 0.11352539 C32.00358398 11.99352539 32.33358398 23.87352539 32.67358398 36.11352539 C44.55358398 36.44352539 56.43358398 36.77352539 68.67358398 37.11352539 C68.67358398 48.99352539 68.67358398 60.87352539 68.67358398 73.11352539 C56.13358398 73.11352539 43.59358398 73.11352539 30.67358398 73.11352539 C30.65295898 67.70977539 30.63233398 62.30602539 30.61108398 56.73852539 C30.60197998 55.03390137 30.59287598 53.32927734 30.58349609 51.57299805 C30.58057596 50.2245288 30.57802763 48.87605867 30.57592773 47.52758789 C30.57081177 46.82529053 30.5656958 46.12299316 30.5604248 45.39941406 C30.55951218 40.34166899 30.55951218 40.34166899 31.67358398 38.11352539 C19.79358398 38.11352539 7.91358398 38.11352539 -4.32641602 38.11352539 C-4.34932441 32.86241343 -4.36925164 27.61147361 -4.38134766 22.36035156 C-4.3863882 20.57258518 -4.39322056 18.78482295 -4.40185547 16.99707031 C-4.41393332 14.43301371 -4.41964696 11.86901142 -4.42407227 9.30493164 C-4.42923355 8.50076309 -4.43439484 7.69659454 -4.43971252 6.86805725 C-4.43990817 4.94950824 -4.38843584 3.03107171 -4.32641602 1.11352539 C-3.32641602 0.11352539 -3.32641602 0.11352539 0 0 Z " fill="#0631F8" transform="translate(210.326416015625,209.886474609375)"/>
<path d="M0 0 C1.56047445 0.00015913 3.12095416 0.00585397 4.68139648 0.01586914 C5.91115456 0.01799156 5.91115456 0.01799156 7.16575623 0.02015686 C9.79470406 0.0257725 12.42356797 0.0383276 15.05249023 0.05102539 C16.8304838 0.05603838 18.60847869 0.06060163 20.38647461 0.06469727 C24.75437181 0.07489787 29.12208664 0.09447007 33.48999023 0.11352539 C33.48999023 11.99352539 33.48999023 23.87352539 33.48999023 36.11352539 C28.23887828 36.13643378 22.98793845 36.15636102 17.73681641 36.16845703 C15.94905003 36.17349757 14.16128779 36.18032993 12.37353516 36.18896484 C9.80947855 36.20104269 7.24547626 36.20675633 4.68139648 36.21118164 C3.47514366 36.21892357 3.47514366 36.21892357 2.24452209 36.2268219 C0.32597309 36.22701754 -1.59246345 36.17554522 -3.51000977 36.11352539 C-5.24293956 34.38059559 -4.63821023 32.15138203 -4.6489563 29.84204102 C-4.64693207 29.10663086 -4.64490784 28.3712207 -4.64282227 27.61352539 C-4.64377899 26.86264648 -4.64473572 26.11176758 -4.64572144 25.33813477 C-4.64640315 23.74763912 -4.64454948 22.15714072 -4.64038086 20.56665039 C-4.63503243 18.12387884 -4.64032611 15.68129118 -4.64672852 13.23852539 C-4.64606773 11.69685832 -4.64478657 10.15519136 -4.64282227 8.61352539 C-4.6448465 7.87811523 -4.64687073 7.14270508 -4.6489563 6.38500977 C-4.61994021 0.14942423 -4.61994021 0.14942423 0 0 Z " fill="#22CFF7" transform="translate(245.510009765625,174.886474609375)"/>
<path d="M0 0 C1.47583954 0.00025104 2.95168496 0.00581025 4.42749023 0.01586914 C5.11452026 0.01687622 5.80155029 0.0178833 6.50939941 0.0189209 C9.08497783 0.02416763 11.66053252 0.0381288 14.23608398 0.05102539 C19.99045898 0.07165039 25.74483398 0.09227539 31.67358398 0.11352539 C32.00358398 12.32352539 32.33358398 24.53352539 32.67358398 37.11352539 C20.46358398 37.44352539 8.25358398 37.77352539 -4.32641602 38.11352539 C-4.34704102 32.02915039 -4.36766602 25.94477539 -4.38891602 19.67602539 C-4.39802002 17.75346924 -4.40712402 15.83091309 -4.41650391 13.85009766 C-4.41942309 12.33504303 -4.42197164 10.81998762 -4.42407227 9.30493164 C-4.42918823 8.51115112 -4.4343042 7.71737061 -4.4395752 6.89953613 C-4.43988558 4.9704971 -4.38877495 3.04155627 -4.32641602 1.11352539 C-3.32641602 0.11352539 -3.32641602 0.11352539 0 0 Z " fill="#0752FA" transform="translate(210.326416015625,209.886474609375)"/>
<path d="M0 0 C11.88 0 23.76 0 36 0 C36 11.88 36 23.76 36 36 C30.245625 36.020625 24.49125 36.04125 18.5625 36.0625 C16.74435791 36.071604 14.92621582 36.08070801 13.05297852 36.09008789 C11.61995518 36.09300711 10.18693102 36.09555566 8.75390625 36.09765625 C8.00330933 36.10277222 7.2527124 36.10788818 6.47937012 36.11315918 C4.65252399 36.11346992 2.82578317 36.06231113 1 36 C0 35 0 35 -0.11352539 31.67358398 C-0.11327435 30.19774445 -0.10771514 28.72189903 -0.09765625 27.24609375 C-0.09664917 26.55906372 -0.09564209 25.87203369 -0.09460449 25.16418457 C-0.08935776 22.58860616 -0.07539659 20.01305147 -0.0625 17.4375 C-0.041875 11.683125 -0.02125 5.92875 0 0 Z " fill="#11ACE3" transform="translate(242,211)"/>
<path d="M0 0 C27.72 0 55.44 0 84 0 C82.875 7.875 82.875 7.875 80.4375 11.4375 C79.98246094 12.11683594 79.52742188 12.79617187 79.05859375 13.49609375 C78.53458984 14.24052734 78.53458984 14.24052734 78 15 C77 12 77 12 78.4375 8.8125 C78.953125 7.884375 79.46875 6.95625 80 6 C80.66 6 81.32 6 82 6 C82.33 4.68 82.66 3.36 83 2 C81.52208481 2.00333092 81.52208481 2.00333092 80.01431274 2.00672913 C70.74376653 2.02697219 61.47322479 2.04197778 52.20266151 2.05181217 C47.4362051 2.05703803 42.66976648 2.06413031 37.90332031 2.07543945 C33.3062561 2.08627885 28.70920903 2.09227908 24.11213303 2.09487724 C22.35539861 2.09672958 20.59866516 2.10034657 18.84193802 2.10573006 C16.38760576 2.11295443 13.93334503 2.11399035 11.47900391 2.11352539 C10.74748611 2.11712067 10.01596832 2.12071594 9.26228333 2.12442017 C4.22810432 2.11405216 4.22810432 2.11405216 2 1 C2 2.32 2 3.64 2 5 C2.66 5 3.32 5 4 5 C4.64834654 6.269553 5.29357815 7.54069706 5.9375 8.8125 C6.29714844 9.52019531 6.65679687 10.22789062 7.02734375 10.95703125 C8 13 8 13 9 16 C9.66 16 10.32 16 11 16 C11.33 17.65 11.66 19.3 12 21 C11.34 21 10.68 21 10 21 C8.6328125 19.05859375 8.6328125 19.05859375 7.125 16.4375 C6.5990625 15.52613281 6.073125 14.61476562 5.53125 13.67578125 C5.0259375 12.79277344 4.520625 11.90976563 4 11 C3.5771875 10.31292969 3.154375 9.62585938 2.71875 8.91796875 C0.67226572 5.5631963 0 4.04720384 0 0 Z " fill="#19E6F5" transform="translate(164,136)"/>
<path d="M0 0 C1 2 1 2 0.3125 5.5 C-1 9 -1 9 -3.125 10.4375 C-3.74375 10.623125 -4.3625 10.80875 -5 11 C-5 11.99 -5 12.98 -5 14 C-4.16983368 13.83544815 -3.33966736 13.6708963 -2.48434448 13.50135803 C1.29389508 12.9577118 4.94619477 12.90777419 8.74951172 12.97827148 C9.50141281 12.98787903 10.2533139 12.99748657 11.02799988 13.00738525 C13.49533044 13.04017511 15.96247267 13.08058252 18.4296875 13.12109375 C20.1474645 13.14541447 21.86524834 13.16925704 23.58303833 13.19264221 C28.09085914 13.25528898 32.59855809 13.32440998 37.10626221 13.39489746 C41.71141031 13.46575683 46.3166444 13.53046824 50.921875 13.59570312 C59.94801118 13.72446509 68.97403053 13.86006953 78 14 C78 14.33 78 14.66 78 15 C35.43 15.495 35.43 15.495 -8 16 C-6.98787713 11.95150853 -5.56619189 9.31072099 -3.4375 5.75 C-2.79683594 4.67234375 -2.15617187 3.5946875 -1.49609375 2.484375 C-1.00238281 1.66453125 -0.50867187 0.8446875 0 0 Z " fill="#1529FA" transform="translate(42,196)"/>
<path d="M0 0 C0.66 0.33 1.32 0.66 2 1 C-2.62 9.25 -7.24 17.5 -12 26 C-12.99 26 -13.98 26 -15 26 C-18.06808511 22.05531915 -18.06808511 22.05531915 -17.875 19.0625 C-16.70611191 16.30726379 -15.38617728 13.6518174 -14 11 C-13.38125 11.639375 -12.7625 12.27875 -12.125 12.9375 C-10.17402388 15.03883584 -10.17402388 15.03883584 -8 16 C-7.79375 15.21625 -7.5875 14.4325 -7.375 13.625 C-5.50965127 8.70726245 -2.79134805 4.44157897 0 0 Z " fill="#1305D0" transform="translate(91,260)"/>
<path d="M0 0 C0.33 0.66 0.66 1.32 1 2 C0.06553465 4.03144641 -0.93224776 6.03533587 -2 8 C-2.66 8 -3.32 8 -4 8 C-4.15867554 8.82334839 -4.15867554 8.82334839 -4.32055664 9.66333008 C-5.78161497 14.68804774 -8.86243361 19.16254377 -11.4375 23.6875 C-12.03626953 24.75806641 -12.63503906 25.82863281 -13.25195312 26.93164062 C-13.82751953 27.94806641 -14.40308594 28.96449219 -14.99609375 30.01171875 C-15.52388428 30.94459717 -16.0516748 31.87747559 -16.59545898 32.83862305 C-18 35 -18 35 -20 36 C-18.89623511 31.58494045 -17.72476317 28.59173327 -15 25 C-15 23.68 -15 22.36 -15 21 C-14.34 21 -13.68 21 -13 21 C-13 20.34 -13 19.68 -13 19 C-12.34 19 -11.68 19 -11 19 C-10.71125 18.4225 -10.4225 17.845 -10.125 17.25 C-9.43718442 15.87436883 -8.71529781 14.51433155 -7.9375 13.1875 C-6.8078073 10.83445066 -6.8078073 10.83445066 -6.5625 7.375 C-6.376875 6.26125 -6.19125 5.1475 -6 4 C-5.01 3.34 -4.02 2.68 -3 2 C-2.34 2.33 -1.68 2.66 -1 3 C-0.67 2.01 -0.34 1.02 0 0 Z " fill="#1A53D7" transform="translate(155,150)"/>
<path d="M0 0 C0.66 0 1.32 0 2 0 C0.40193652 6.08882416 -2.8611283 11.0664755 -6.125 16.375 C-6.68832031 17.30183594 -7.25164062 18.22867188 -7.83203125 19.18359375 C-9.21606043 21.45903155 -10.60548922 23.7309763 -12 26 C-16 21.375 -16 21.375 -16 18 C-15.34 18 -14.68 18 -14 18 C-13.67 17.01 -13.34 16.02 -13 15 C-11.35 15 -9.7 15 -8 15 C-7.04078278 13.25048432 -6.08266183 11.50036756 -5.125 9.75 C-4.59132812 8.77546875 -4.05765625 7.8009375 -3.5078125 6.796875 C-2.29580534 4.54869592 -1.12452433 2.2927195 0 0 Z " fill="#0F4DEB" transform="translate(133,186)"/>
<path d="M0 0 C1 2 1 2 -0.125 5.75 C-1.76009842 9.92101495 -4.05043573 12.66233517 -7 16 C-7.33 16.99 -7.66 17.98 -8 19 C-8.66 19 -9.32 19 -10 19 C-9.32528027 14.81462919 -7.10765265 11.41245915 -5 7.8125 C-4.44699219 6.85053711 -4.44699219 6.85053711 -3.8828125 5.86914062 C-1.15472274 1.15472274 -1.15472274 1.15472274 0 0 Z " fill="#1235C1" transform="translate(60,165)"/>
<path d="M0 0 C0.66 0.33 1.32 0.66 2 1 C-2.29 8.59 -6.58 16.18 -11 24 C-12.2077558 20.37673261 -11.54311128 19.35853631 -10 16 C-9.34 16 -8.68 16 -8 16 C-7.79375 15.21625 -7.5875 14.4325 -7.375 13.625 C-5.50965127 8.70726245 -2.79134805 4.44157897 0 0 Z " fill="#170DA6" transform="translate(91,260)"/>
<path d="M0 0 C1 2 1 2 0.3125 5.5 C-1 9 -1 9 -3.125 10.4375 C-3.74375 10.623125 -4.3625 10.80875 -5 11 C-5 11.99 -5 12.98 -5 14 C-3.02 13.67 -1.04 13.34 1 13 C1.33 13.66 1.66 14.32 2 15 C-1.3 15.33 -4.6 15.66 -8 16 C-6.98787713 11.95150853 -5.56619189 9.31072099 -3.4375 5.75 C-2.79683594 4.67234375 -2.15617187 3.5946875 -1.49609375 2.484375 C-1.00238281 1.66453125 -0.50867187 0.8446875 0 0 Z " fill="#1331DF" transform="translate(42,196)"/>
<path d="M0 0 C1 3 1 3 -0.4765625 6.3984375 C-1.18209785 7.72963628 -1.89874129 9.05499295 -2.625 10.375 C-2.96917969 11.035 -3.31335938 11.695 -3.66796875 12.375 C-5.96153823 16.62360471 -8.42633089 19.75234982 -12 23 C-10.46688715 17.48431813 -7.81247556 12.97965148 -4.875 8.125 C-4.40707031 7.34125 -3.93914062 6.5575 -3.45703125 5.75 C-2.30981892 3.83017528 -1.1573993 1.91369439 0 0 Z " fill="#17C4ED" transform="translate(179,108)"/>
<path d="M0 0 C2.72802666 2.42851038 4.2425735 5.0309884 5.9375 8.25 C7.69854266 11.57396802 9.48739953 14.84618846 11.4375 18.0625 C11.953125 19.031875 12.46875 20.00125 13 21 C12.67 21.66 12.34 22.32 12 23 C7.40163385 15.8150529 3.20060161 8.42141028 -1 1 C-0.67 0.67 -0.34 0.34 0 0 Z " fill="#180EAF" transform="translate(35,211)"/>
<path d="M0 0 C0.33 0.66 0.66 1.32 1 2 C-0.40895236 4.61788643 -1.86243091 7.11045672 -3.4375 9.625 C-3.87126953 10.33140625 -4.30503906 11.0378125 -4.75195312 11.765625 C-5.82748132 13.51483568 -6.91283725 15.25799654 -8 17 C-8.33 15.68 -8.66 14.36 -9 13 C-8.34 13 -7.68 13 -7 13 C-7.33 11.35 -7.66 9.7 -8 8 C-7.34 7.67 -6.68 7.34 -6 7 C-5.67 6.01 -5.34 5.02 -5 4 C-4.01 4 -3.02 4 -2 4 C-1.34 2.68 -0.68 1.36 0 0 Z " fill="#26DEE7" transform="translate(227,174)"/>
<path d="M0 0 C2 3 2 3 2 5 C2.66 5 3.32 5 4 5 C4.64834654 6.269553 5.29357815 7.54069706 5.9375 8.8125 C6.29714844 9.52019531 6.65679687 10.22789062 7.02734375 10.95703125 C8 13 8 13 9 16 C9.66 16 10.32 16 11 16 C11.33 17.65 11.66 19.3 12 21 C11.34 21 10.68 21 10 21 C8.6328125 19.05859375 8.6328125 19.05859375 7.125 16.4375 C6.5990625 15.52613281 6.073125 14.61476562 5.53125 13.67578125 C5.0259375 12.79277344 4.520625 11.90976563 4 11 C3.5771875 10.31292969 3.154375 9.62585938 2.71875 8.91796875 C0.67226572 5.5631963 0 4.04720384 0 0 Z " fill="#2ADEED" transform="translate(164,136)"/>
<path d="M0 0 C2.94139884 3.69340696 5.28578782 7.69735009 7.6875 11.75 C8.10322266 12.44738281 8.51894531 13.14476563 8.94726562 13.86328125 C9.96685837 15.57432195 10.98370451 17.2869988 12 19 C11.01 19.33 10.02 19.66 9 20 C8.32845067 18.71086513 7.66291141 17.41859796 7 16.125 C6.62875 15.40570313 6.2575 14.68640625 5.875 13.9453125 C5 12 5 12 5 10 C4.34 10 3.68 10 3 10 C0.96564469 6.27034861 0 4.33094958 0 0 Z " fill="#25A0B4" transform="translate(233,107)"/>
<path d="M0 0 C3.24741424 2.78496601 5.16089095 6.39536751 7.25 10.0625 C7.62640625 10.69994141 8.0028125 11.33738281 8.390625 11.99414062 C9.32643643 13.6266499 10.17105723 15.31071511 11 17 C10.67 17.66 10.34 18.32 10 19 C8.5 17.6875 8.5 17.6875 7 16 C7 15.01 7 14.02 7 13 C6.01 12.67 5.02 12.34 4 12 C3.26919734 10.02253397 2.60578253 8.01927511 2 6 C1.34 5.01 0.68 4.02 0 3 C0 2.01 0 1.02 0 0 Z " fill="#1EBFDE" transform="translate(222,89)"/>
<path d="M0 0 C0.33 0.99 0.66 1.98 1 3 C-0.23414044 5.34282452 -1.49246493 7.48292584 -2.9375 9.6875 C-3.32357422 10.29400391 -3.70964844 10.90050781 -4.10742188 11.52539062 C-5.06246419 13.02280265 -6.03006086 14.51219401 -7 16 C-8.26339822 12.20980534 -7.49719015 10.62477616 -6 7 C-5.34 6.67 -4.68 6.34 -4 6 C-3.855625 5.360625 -3.71125 4.72125 -3.5625 4.0625 C-3 2 -3 2 0 0 Z " fill="#130AB3" transform="translate(109,229)"/>
<path d="M0 0 C0.33 0.66 0.66 1.32 1 2 C0.0625 4.625 0.0625 4.625 -1 7 C-1.66 7 -2.32 7 -3 7 C-3.144375 7.78375 -3.28875 8.5675 -3.4375 9.375 C-4 12 -4 12 -5 14 C-5.66 14 -6.32 14 -7 14 C-7.33 14.99 -7.66 15.98 -8 17 C-8.33 16.34 -8.66 15.68 -9 15 C-7.7796615 12.56816603 -6.51503995 10.26895497 -5.125 7.9375 C-4.74730469 7.28716797 -4.36960938 6.63683594 -3.98046875 5.96679688 C-1.18268327 1.18268327 -1.18268327 1.18268327 0 0 Z " fill="#16C4ED" transform="translate(203,67)"/>
<path d="M0 0 C0.33 0.66 0.66 1.32 1 2 C0.06553465 4.03144641 -0.93224776 6.03533587 -2 8 C-2.66 8 -3.32 8 -4 8 C-4 8.99 -4 9.98 -4 11 C-4.66 11 -5.32 11 -6 11 C-6.1875 7.625 -6.1875 7.625 -6 4 C-5.01 3.34 -4.02 2.68 -3 2 C-2.34 2.33 -1.68 2.66 -1 3 C-0.67 2.01 -0.34 1.02 0 0 Z " fill="#144CDE" transform="translate(155,150)"/>
<path d="M0 0 C1.82421875 0.1640625 1.82421875 0.1640625 4 1 C5.51953125 3.3984375 5.51953125 3.3984375 6.8125 6.375 C7.25207031 7.35210937 7.69164062 8.32921875 8.14453125 9.3359375 C9 12 9 12 8 15 C6.66407203 12.6889639 5.33115569 10.37628245 4 8.0625 C3.6184375 7.40314453 3.236875 6.74378906 2.84375 6.06445312 C0 1.11328125 0 1.11328125 0 0 Z " fill="#28E2EB" transform="translate(175,158)"/>
<path d="M0 0 C0.33 0.66 0.66 1.32 1 2 C-0.25 5.5625 -0.25 5.5625 -2 9 C-2.99 9.33 -3.98 9.66 -5 10 C-5.73323796 12.01508358 -5.73323796 12.01508358 -6 14 C-6.66 13.67 -7.32 13.34 -8 13 C-6.85605098 11.01974361 -5.70978896 9.04082322 -4.5625 7.0625 C-3.92441406 5.96035156 -3.28632812 4.85820313 -2.62890625 3.72265625 C-1 1 -1 1 0 0 Z " fill="#3E70DE" transform="translate(86,120)"/>
<path d="M0 0 C0.74609375 1.640625 0.74609375 1.640625 1 4 C-0.65234375 6.796875 -0.65234375 6.796875 -2.9375 9.75 C-4.06478516 11.22726563 -4.06478516 11.22726563 -5.21484375 12.734375 C-5.80394531 13.48203125 -6.39304687 14.2296875 -7 15 C-7.33 14.34 -7.66 13.68 -8 13 C-6.75506252 10.71025684 -5.47358472 8.55809966 -4.0625 6.375 C-3.67642578 5.76398438 -3.29035156 5.15296875 -2.89257812 4.5234375 C-1.93553674 3.0110758 -0.96867189 1.50493883 0 0 Z " fill="#3B78DB" transform="translate(113,73)"/>
<path d="M0 0 C0.66 0 1.32 0 2 0 C2 0.99 2 1.98 2 3 C3.65 3 5.3 3 7 3 C6.01 3.33 5.02 3.66 4 4 C4.515625 5.093125 5.03125 6.18625 5.5625 7.3125 C7 11 7 11 6 14 C4.9923048 12.2335343 3.99408286 10.46166177 3 8.6875 C2.443125 7.70136719 1.88625 6.71523437 1.3125 5.69921875 C0 3 0 3 0 0 Z " fill="#1954F4" transform="translate(77,134)"/>
<path d="M0 0 C0.66 0.33 1.32 0.66 2 1 C-0.64 5.62 -3.28 10.24 -6 15 C-7 12 -7 12 -5.75 8.5 C-4.29655941 5.59311882 -3.37720847 4.05304368 -1 2 C-0.67 1.34 -0.34 0.68 0 0 Z " fill="#2EDADE" transform="translate(235,159)"/>
<path d="M0 0 C0.625 1.8125 0.625 1.8125 1 4 C0.01 5.485 0.01 5.485 -1 7 C-1.38499891 8.65549531 -1.72793135 10.3222433 -2 12 C-3.32 12 -4.64 12 -6 12 C-4 8 -2 4 0 0 Z " fill="#1132D7" transform="translate(67,152)"/>
<path d="M0 0 C0.33 0.66 0.66 1.32 1 2 C0.01871943 3.76630503 -0.96966087 5.52987033 -2.0234375 7.25390625 C-3.12201342 9.01824673 -3.12201342 9.01824673 -3.5 11.3125 C-4 13 -4 13 -6.0625 14.25 C-6.701875 14.4975 -7.34125 14.745 -8 15 C-6.62712658 11.30123909 -4.93644547 8.0485524 -2.875 4.6875 C-2.33617188 3.80449219 -1.79734375 2.92148438 -1.2421875 2.01171875 C-0.83226563 1.34785156 -0.42234375 0.68398437 0 0 Z " fill="#3B72DB" transform="translate(95,104)"/>
<path d="M0 0 C0.66 0 1.32 0 2 0 C0.53967505 5.31027254 -1.98320986 9.46330032 -5 14 C-6 11 -6 11 -4.78515625 8.30078125 C-4.21667969 7.31464844 -3.64820313 6.32851562 -3.0625 5.3125 C-2.49660156 4.31863281 -1.93070313 3.32476562 -1.34765625 2.30078125 C-0.90292969 1.54152344 -0.45820313 0.78226563 0 0 Z " fill="#1A54CD" transform="translate(133,186)"/>
<path d="M0 0 C1 3 1 3 0.0390625 5.04296875 C-0.42757812 5.75066406 -0.89421875 6.45835937 -1.375 7.1875 C-1.83648437 7.90292969 -2.29796875 8.61835938 -2.7734375 9.35546875 C-3.17820313 9.89816406 -3.58296875 10.44085938 -4 11 C-4.33 11 -4.66 11 -5 11 C-5 9.35 -5 7.7 -5 6 C-4.34 6 -3.68 6 -3 6 C-2.67 4.68 -2.34 3.36 -2 2 C-1.34 2 -0.68 2 0 2 C0 1.34 0 0.68 0 0 Z " fill="#2BDBE5" transform="translate(214,196)"/>
<path d="M0 0 C1 2 1 2 0.546875 3.875 C0.28390625 4.57625 0.0209375 5.2775 -0.25 6 C-0.62898438 7.051875 -0.62898438 7.051875 -1.015625 8.125 C-2 10 -2 10 -5 12 C-4.54738642 10.56068883 -4.08767021 9.12361001 -3.625 7.6875 C-3.24214844 6.48673828 -3.24214844 6.48673828 -2.8515625 5.26171875 C-2 3 -2 3 0 0 Z " fill="#0F35E1" transform="translate(60,165)"/>
<path d="M0 0 C2.15377564 2.62198774 3.40072174 4.64404172 4 8 C1.69 7.01 -0.62 6.02 -3 5 C-3 4.34 -3 3.68 -3 3 C-2.01 3 -1.02 3 0 3 C0 2.01 0 1.02 0 0 Z " fill="#1BC6E0" transform="translate(207,62)"/>
<path d="M0 0 C1.0169313 2.65498232 1.13022151 3.69155375 0.00390625 6.359375 C-0.47175781 7.14828125 -0.94742188 7.9371875 -1.4375 8.75 C-2.14712891 9.94882812 -2.14712891 9.94882812 -2.87109375 11.171875 C-3.24363281 11.77515625 -3.61617188 12.3784375 -4 13 C-5.2077558 9.37673261 -4.54311128 8.35853631 -3 5 C-2.34 5 -1.68 5 -1 5 C-0.67 3.35 -0.34 1.7 0 0 Z " fill="#170CB8" transform="translate(84,271)"/>
<path d="M0 0 C2.97069541 2.54631035 4.4775751 5.42230149 6 9 C5.67 9.66 5.34 10.32 5 11 C3.02 7.7 1.04 4.4 -1 1 C-0.67 0.67 -0.34 0.34 0 0 Z " fill="#140D9D" transform="translate(35,211)"/>
<path d="M0 0 C0.99 0.33 1.98 0.66 3 1 C1.7191375 4.64553172 0.83328987 6.16671013 -2 9 C-1.34 6.03 -0.68 3.06 0 0 Z " fill="#120BA3" transform="translate(103,236)"/>
<path d="M0 0 C3.34243648 1.89404734 3.97997149 2.94091591 5.25 6.6875 C5.4975 7.780625 5.745 8.87375 6 10 C3.38275905 7.63202009 1.67138271 5.10399646 0 2 C0 1.34 0 0.68 0 0 Z " fill="#1955FC" transform="translate(91,160)"/>
<path d="M0 0 C0.66 0 1.32 0 2 0 C2 0.99 2 1.98 2 3 C1.34 3 0.68 3 0 3 C-0.33 4.32 -0.66 5.64 -1 7 C-1.66 7 -2.32 7 -3 7 C-1.125 1.125 -1.125 1.125 0 0 Z " fill="#1239DA" transform="translate(76,137)"/>
</svg>
