<?xml version="1.0" encoding="UTF-8"?>
<svg version="1.1" xmlns="http://www.w3.org/2000/svg" width="570" height="146">
<path d="M0 0 C5.94 0 11.88 0 18 0 C19.11890625 2.23910156 20.2378125 4.47820313 21.390625 6.78515625 C24.11622634 12.23813508 26.84632546 17.68883136 29.5814209 23.13705444 C31.22260932 26.40678078 32.86210714 29.67735353 34.50146484 32.94799805 C35.34028309 34.6205498 36.17981217 36.29274524 37.02001953 37.96459961 C38.26005829 40.43247296 39.49745293 42.90165711 40.734375 45.37109375 C41.10423523 46.10565292 41.47409546 46.8402121 41.85516357 47.59703064 C49 61.8851802 49 61.8851802 49 65 C49.66 65 50.32 65 51 65 C51.37382812 63.76894531 51.74765625 62.53789063 52.1328125 61.26953125 C54.17750891 55.14856434 57.02416315 49.46606349 59.875 43.6875 C61.03568264 41.30945947 62.19496222 38.93080337 63.3515625 36.55078125 C63.64865112 35.94028931 63.94573975 35.32979736 64.25183105 34.70080566 C68.27171464 26.41549586 72.10701944 18.04357295 75.94873047 9.67456055 C76.72434326 7.99100464 76.72434326 7.99100464 77.515625 6.2734375 C78.20060059 4.77949463 78.20060059 4.77949463 78.89941406 3.25537109 C80 1 80 1 81 0 C86.94 0 92.88 0 99 0 C99 23.1 99 46.2 99 70 C93.06 70 87.12 70 81 70 C80.505 57.625 80.505 57.625 80 45 C78.39125 48.403125 76.7825 51.80625 75.125 55.3125 C71.35062029 63.24336697 67.47111647 71.10507047 63.375 78.875 C62.94977051 79.68235596 62.52454102 80.48971191 62.08642578 81.3215332 C59.14018154 86.85981846 59.14018154 86.85981846 58 88 C55.30345146 88.07319621 52.63308542 88.09242537 49.9375 88.0625 C49.17888672 88.05798828 48.42027344 88.05347656 47.63867188 88.04882812 C45.75908129 88.0370068 43.87953101 88.01907078 42 88 C34.27244694 73.36474714 26.62777485 58.68752392 19 44 C18.67 59.51 18.34 75.02 18 91 C12.06 91 6.12 91 0 91 C0 60.97 0 30.94 0 0 Z " fill="#0851F7" transform="translate(436,28)"/>
<path d="M0 0 C9.95675325 7.15953829 16.06343109 17.02821381 19.13671875 28.8515625 C21.23367041 43.17014152 19.22410553 56.90865894 11.28515625 69.20703125 C4.55468352 77.93724533 -3.86781392 82.96067621 -14.4765625 85.4921875 C-27.23235068 86.76055025 -39.96766189 86.25761942 -50.7890625 78.7421875 C-60.58614648 70.61182735 -67.41006717 60.17128214 -68.69750977 47.27978516 C-69.49255788 31.59826282 -67.05878199 18.90893548 -56.88671875 6.5625 C-43.32473997 -8.30781085 -16.7867482 -10.22032303 0 0 Z M-43.7890625 19.6796875 C-49.82741968 26.97554146 -51.0693529 33.83203768 -50.828125 43.20703125 C-49.9873738 51.06338413 -47.28027509 58.07538908 -41.4765625 63.4921875 C-35.04678735 68.09204614 -29.09972526 69.9607844 -21.2265625 69.3046875 C-14.37464824 68.16270179 -8.34553561 64.93355914 -3.87109375 59.56640625 C1.31989421 51.72664437 2.30558869 43.7336046 1.5234375 34.4921875 C-0.33617254 25.5877774 -4.98728017 18.66150503 -12.4765625 13.4921875 C-23.7464817 7.8572279 -35.50508189 11.1110855 -43.7890625 19.6796875 Z " fill="#3173F9" transform="translate(412.4765625,33.5078125)"/>
<path d="M0 0 C4.18478108 -0.70100394 8.40256804 -0.68510561 12.63867188 -0.72070312 C14.73155397 -0.74974404 16.81546084 -0.84264378 18.90625 -0.9375 C28.61378746 -1.17268953 28.61378746 -1.17268953 32.10644531 1.78198242 C33.66330082 4.11601419 34.82848028 6.45363478 36 9 C36.89793115 10.33542564 37.81907811 11.65561242 38.765625 12.95703125 C45.33679902 22.85928502 45.33679902 22.85928502 44.484375 28.27734375 C42.90566067 31.43892693 41.0799849 34.14481777 39 37 C37.69020377 39.23949472 36.39793591 41.48935033 35.125 43.75 C34.08712724 45.50225271 33.04688945 47.25311937 32 49 C34.64 49 37.28 49 40 49 C40.33 45.37 40.66 41.74 41 38 C43.14576637 37.97314062 45.29162645 37.95366912 47.4375 37.9375 C48.63246094 37.92589844 49.82742187 37.91429687 51.05859375 37.90234375 C54 38 54 38 55 39 C55.07205511 40.68608966 55.08386068 42.37500659 55.0625 44.0625 C55.05347656 44.98160156 55.04445313 45.90070313 55.03515625 46.84765625 C55.02355469 47.55792969 55.01195313 48.26820312 55 49 C55.78246094 48.98839844 56.56492187 48.97679687 57.37109375 48.96484375 C58.88896484 48.95130859 58.88896484 48.95130859 60.4375 48.9375 C61.44683594 48.92589844 62.45617187 48.91429687 63.49609375 48.90234375 C66 49 66 49 67 50 C67.09873816 51.99799572 67.12971799 53.99957158 67.125 56 C67.12886719 57.6396875 67.12886719 57.6396875 67.1328125 59.3125 C67 62 67 62 66 63 C61.99779347 63.14355117 58.00558317 63.04216403 54 63 C54 67.29 54 71.58 54 76 C49.71 75.67 45.42 75.34 41 75 C41 71.04 41 67.08 41 63 C37.04 63 33.08 63 29 63 C29.0928125 60.3703125 29.0928125 60.3703125 29.1875 57.6875 C28.42093491 46.47339451 21.07586255 37.11379383 15 28 C14.57291748 28.74870361 14.14583496 29.49740723 13.70581055 30.26879883 C13.10551025 31.32091553 12.50520996 32.37303223 11.88671875 33.45703125 C11.56106934 34.02779388 11.23541992 34.59855652 10.89990234 35.18661499 C9.09861409 38.34286448 7.29556819 41.49809319 5.48950195 44.65161133 C4.75340775 45.93700587 4.01732377 47.22240626 3.28125 48.5078125 C2.91505051 49.14722275 2.54885101 49.786633 2.17155457 50.44541931 C-0.03741319 54.30611135 -2.22837491 58.17633385 -4.40625 62.0546875 C-5.37498534 63.7656333 -6.34373422 65.47657143 -7.3125 67.1875 C-7.74925049 67.97552002 -8.18600098 68.76354004 -8.63598633 69.57543945 C-11.66091878 74.88697293 -11.66091878 74.88697293 -15 76 C-16.58626141 73.16829677 -18.16845593 70.33434022 -19.75 67.5 C-20.1934375 66.70851563 -20.636875 65.91703125 -21.09375 65.1015625 C-21.98076135 63.51015978 -22.85261019 61.91021276 -23.70922852 60.30224609 C-24.94006903 58.00219014 -24.94006903 58.00219014 -26.42944336 56.02978516 C-27.83303409 53.93289995 -28.60397464 52.50008612 -29 50 C-27.700464 45.72152763 -25.42413555 42.14811382 -23.0625 38.375 C-22.41893555 37.29138184 -21.77537109 36.20776367 -21.11230469 35.09130859 C-19.77008496 32.83733677 -18.41421658 30.5914414 -17.04541016 28.35351562 C-15.070302 25.11526239 -13.14215324 21.85414213 -11.23046875 18.578125 C-3.07255079 4.60882618 -3.07255079 4.60882618 0 0 Z " fill="#17ABDD" transform="translate(58,35)"/>
<path d="M0 0 C1.54010742 0.04737305 1.54010742 0.04737305 3.11132812 0.09570312 C5.63965184 0.17802064 8.1620986 0.29290989 10.6875 0.4375 C9.82873588 4.4976063 7.87442609 7.27302556 5.4375 10.5625 C5.00147461 11.16215576 4.56544922 11.76181152 4.11621094 12.37963867 C3.1606951 13.69322256 2.20256257 15.00490596 1.2421875 16.31494141 C-0.97295277 19.33919227 -3.17260416 22.3745454 -5.37011719 25.41162109 C-6.46749988 26.92788357 -7.56698294 28.442629 -8.66894531 29.95556641 C-12.35084105 35.03051876 -15.86989749 40.19745288 -19.3125 45.4375 C-16.19793421 51.18333688 -12.56749785 56.37227969 -8.6875 61.625 C-7.5259053 63.19980515 -6.36694802 64.77655989 -5.2109375 66.35546875 C-4.44789307 67.38837036 -4.44789307 67.38837036 -3.66943359 68.44213867 C-2.3523684 70.37887379 -1.30637573 72.31966165 -0.3125 74.4375 C-20.26496761 76.19266909 -20.26496761 76.19266909 -25.18701172 73.35791016 C-28.11719693 70.55941866 -29.85151332 67.17180621 -31.3125 63.4375 C-36.03617409 67.74542 -39.40082571 72.69902587 -42.9375 78 C-44.0747941 79.68929157 -45.21279052 81.37811058 -46.3515625 83.06640625 C-46.84865723 83.80963135 -47.34575195 84.55285645 -47.85791016 85.31860352 C-48.3379248 86.01783936 -48.81793945 86.7170752 -49.3125 87.4375 C-49.76326904 88.17959717 -50.21403809 88.92169434 -50.6784668 89.6862793 C-52.3125 91.4375 -52.3125 91.4375 -54.67260742 91.89160156 C-55.57857666 91.8706543 -56.4845459 91.84970703 -57.41796875 91.828125 C-58.89233398 91.80878906 -58.89233398 91.80878906 -60.39648438 91.7890625 C-61.42064453 91.75554687 -62.44480469 91.72203125 -63.5 91.6875 C-64.53576172 91.66945313 -65.57152344 91.65140625 -66.63867188 91.6328125 C-69.19754284 91.58564437 -71.75455842 91.51984057 -74.3125 91.4375 C-73.07604227 88.11898603 -71.6959676 85.27476327 -69.6953125 82.35546875 C-69.17630371 81.59580811 -68.65729492 80.83614746 -68.12255859 80.0534668 C-67.56648926 79.25207275 -67.01041992 78.45067871 -66.4375 77.625 C-65.86467285 76.79202393 -65.2918457 75.95904785 -64.70166016 75.10083008 C-60.36243513 68.83603675 -55.86000445 62.70783498 -51.18408203 56.69018555 C-48.42001654 53.09517825 -46.20775164 49.59051785 -44.3125 45.4375 C-44.64459473 44.96965088 -44.97668945 44.50180176 -45.31884766 44.01977539 C-56.08283715 28.84452901 -56.08283715 28.84452901 -60.0625 23 C-60.51109375 22.34128906 -60.9596875 21.68257812 -61.421875 21.00390625 C-62.3125 19.4375 -62.3125 19.4375 -62.3125 17.4375 C-43.2830304 15.68233091 -43.2830304 15.68233091 -38.48535156 18.51708984 C-35.57843078 21.33072435 -33.81907534 24.72529837 -32.3125 28.4375 C-28.1187064 24.53240958 -24.98666968 20.3193089 -21.8125 15.5625 C-20.42867253 13.51195454 -19.04409947 11.46378768 -17.6315918 9.43286133 C-16.28312205 7.47067297 -16.28312205 7.47067297 -15.25317383 5.38549805 C-11.64023252 -1.08144585 -6.8564554 -0.39919222 0 0 Z " fill="#17ACDE" transform="translate(289.3125,27.5625)"/>
<path d="M0 0 C1.32 0 2.64 0 4 0 C9.03928486 12.97878926 14.0738263 25.95940667 19.10215759 38.94244385 C21.5647341 45.2997271 24.03168983 51.65527662 26.50386047 58.00883484 C27.90701961 61.617641 29.30610733 65.22801517 30.70407104 68.83883667 C31.35847589 70.52648025 32.01465896 72.21343541 32.67263794 73.89968872 C33.5819642 76.23083999 34.48509363 78.56429901 35.38671875 80.8984375 C35.78843796 81.92158806 35.78843796 81.92158806 36.19827271 82.96540833 C37.28975674 85.80804111 38 87.92431718 38 91 C31.73 91 25.46 91 19 91 C16.89957121 85.12871067 14.7999863 79.25712051 12.70117188 73.38525391 C11.98753489 71.38907784 11.27367016 69.39298318 10.55957031 67.39697266 C9.53129695 64.52267652 8.50385156 61.64808556 7.4765625 58.7734375 C7.15877838 57.88570648 6.84099426 56.99797546 6.51358032 56.08334351 C4.96126346 51.73701253 3.43698476 47.38625478 2 43 C1.59160889 44.16982422 1.18321777 45.33964844 0.76245117 46.54492188 C-0.76299405 50.91373387 -2.28964622 55.28212331 -3.81665039 59.65039062 C-4.47550493 61.53569343 -5.13403862 63.4211084 -5.79223633 65.30664062 C-6.74214283 68.02764456 -7.69322891 70.7482338 -8.64453125 73.46875 C-9.08065483 74.71924133 -9.08065483 74.71924133 -9.52558899 75.99499512 C-9.80565292 76.79522095 -10.08571686 77.59544678 -10.37426758 78.41992188 C-10.61631424 79.11275269 -10.8583609 79.8055835 -11.10774231 80.51940918 C-12.36909222 84.02612371 -13.69147969 87.51061251 -15 91 C-21.27 91 -27.54 91 -34 91 C-31.75023911 80.87607599 -31.75023911 80.87607599 -30.23510742 77.11157227 C-29.89639618 76.25986954 -29.55768494 75.40816681 -29.20870972 74.53065491 C-28.8446402 73.63495285 -28.48057068 72.73925079 -28.10546875 71.81640625 C-27.72125763 70.85451889 -27.33704651 69.89263153 -26.94119263 68.90159607 C-26.12000733 66.84737502 -25.29583248 64.79434693 -24.46890259 62.74243164 C-22.30671098 57.37673192 -20.16623159 52.00237489 -18.0234375 46.62890625 C-17.59563492 45.55774567 -17.16783234 44.48658508 -16.72706604 43.38296509 C-12.83436656 33.62188494 -9.04763295 23.8223071 -5.3125 14 C-5.03505951 13.27104523 -4.75761902 12.54209045 -4.47177124 11.79104614 C-2.97705758 7.86225289 -1.4862946 3.93198768 0 0 Z " fill="#0E24EB" transform="translate(174,28)"/>
<path d="M0 0 C1.24652344 -0.01417969 2.49304688 -0.02835938 3.77734375 -0.04296875 C7.0625 0.1875 7.0625 0.1875 10.0625 2.1875 C10.42326355 5.23733521 10.42326355 5.23733521 10.40307617 9.20751953 C10.40373329 10.29060394 10.40373329 10.29060394 10.40440369 11.39556885 C10.40230999 13.78742308 10.37895257 16.1785804 10.35546875 18.5703125 C10.34987484 20.22654843 10.34560377 21.88278932 10.34260559 23.53903198 C10.33114063 27.9022996 10.30165948 32.26526852 10.26849365 36.62841797 C10.23782818 41.07906045 10.22410781 45.52975111 10.20898438 49.98046875 C10.17679116 58.71628304 10.12557515 67.45185439 10.0625 76.1875 C10.70058594 76.17589844 11.33867187 76.16429688 11.99609375 76.15234375 C12.82238281 76.14332031 13.64867187 76.13429688 14.5 76.125 C15.32371094 76.11339844 16.14742188 76.10179688 16.99609375 76.08984375 C19.0625 76.1875 19.0625 76.1875 20.0625 77.1875 C20.13563567 79.71799402 20.15497527 82.22054837 20.125 84.75 C20.12048828 85.46091797 20.11597656 86.17183594 20.11132812 86.90429688 C20.09950864 88.66540013 20.08157263 90.42646036 20.0625 92.1875 C16.90796335 93.76476832 13.52509198 93.32940506 10.0625 93.3203125 C9.27101563 93.32126923 8.47953125 93.32222595 7.6640625 93.32321167 C5.98958253 93.32389259 4.31509991 93.32204444 2.640625 93.31787109 C0.07285654 93.31252158 -2.494737 93.31781903 -5.0625 93.32421875 C-6.68750039 93.32355795 -8.31250067 93.32227676 -9.9375 93.3203125 C-10.70835937 93.32233673 -11.47921875 93.32436096 -12.2734375 93.32644653 C-17.70757868 93.30246066 -17.70757868 93.30246066 -19.9375 92.1875 C-19.96435095 89.70826199 -19.98426547 87.2293116 -20 84.75 C-20.01256836 83.68942383 -20.01256836 83.68942383 -20.02539062 82.60742188 C-20.03403588 80.80056441 -19.98970011 78.99362397 -19.9375 77.1875 C-19.4425 76.6925 -19.4425 76.6925 -18.9375 76.1875 C-15.6375 76.1875 -12.3375 76.1875 -8.9375 76.1875 C-8.9375 51.4375 -8.9375 26.6875 -8.9375 1.1875 C-5.98162889 -0.29043555 -3.28752355 0.01696349 0 0 Z " fill="#12D6F1" transform="translate(322.9375,26.8125)"/>
<path d="M0 0 C0.99 0 1.98 0 3 0 C3.39058594 1.29744141 3.39058594 1.29744141 3.7890625 2.62109375 C5.01720546 6.04800878 6.5250358 8.93210206 8.375 12.0625 C9.25285156 13.56490234 9.25285156 13.56490234 10.1484375 15.09765625 C11.91578074 18.0529941 11.91578074 18.0529941 14.2890625 20.49609375 C16 23 16 23 15.79394531 25.80615234 C14.9539345 29.18531022 13.77495 31.6124536 12.0078125 34.60546875 C11.3900293 35.6632251 10.77224609 36.72098145 10.13574219 37.81079102 C9.47219727 38.92510498 8.80865234 40.03941895 8.125 41.1875 C7.44352418 42.34449296 6.76286654 43.5019682 6.08300781 44.65991211 C5.0531367 46.41319526 4.02235746 48.16588967 2.9876709 49.91633606 C0.83840341 53.55458054 -1.26578944 57.21466151 -3.3359375 60.8984375 C-3.8323877 61.77733643 -4.32883789 62.65623535 -4.84033203 63.56176758 C-5.76161937 65.19611919 -6.67692847 66.83385905 -7.58544922 68.4753418 C-10.66406609 73.88802203 -10.66406609 73.88802203 -14 75 C-15.58626141 72.16829677 -17.16845593 69.33434022 -18.75 66.5 C-19.1934375 65.70851563 -19.636875 64.91703125 -20.09375 64.1015625 C-20.98076135 62.51015978 -21.85261019 60.91021276 -22.70922852 59.30224609 C-23.94006903 57.00219014 -23.94006903 57.00219014 -25.42944336 55.02978516 C-26.83303409 52.93289995 -27.60397464 51.50008612 -28 49 C-26.70046323 44.7215251 -24.42405585 41.14816145 -22.0625 37.375 C-21.41966064 36.29210693 -20.77682129 35.20921387 -20.11450195 34.09350586 C-18.77313944 31.84019391 -17.41799512 29.595034 -16.04980469 27.35791016 C-13.44958546 23.09833235 -10.92858655 18.79460721 -8.40600586 14.48876953 C-6.31698569 10.93158872 -4.2037762 7.38920215 -2.0847168 3.84985352 C-1.3465312 2.59096713 -0.65264277 1.30528554 0 0 Z " fill="#0731F9" transform="translate(57,36)"/>
<path d="M0 0 C2.14576637 -0.02685938 4.29162645 -0.04633088 6.4375 -0.0625 C7.63246094 -0.07410156 8.82742187 -0.08570312 10.05859375 -0.09765625 C13 0 13 0 14 1 C14.07205511 2.68608966 14.08386068 4.37500659 14.0625 6.0625 C14.05347656 6.98160156 14.04445313 7.90070313 14.03515625 8.84765625 C14.02355469 9.55792969 14.01195313 10.26820312 14 11 C14.78246094 10.98839844 15.56492187 10.97679688 16.37109375 10.96484375 C17.38300781 10.95582031 18.39492187 10.94679688 19.4375 10.9375 C20.44683594 10.92589844 21.45617187 10.91429688 22.49609375 10.90234375 C25 11 25 11 26 12 C26.09873816 13.99799572 26.12971799 15.99957158 26.125 18 C26.12886719 19.6396875 26.12886719 19.6396875 26.1328125 21.3125 C26 24 26 24 25 25 C20.99779347 25.14355117 17.00558317 25.04216403 13 25 C13 29.29 13 33.58 13 38 C8.71 37.67 4.42 37.34 0 37 C0 33.04 0 29.08 0 25 C-3.96 25 -7.92 25 -12 25 C-12 20.71 -12 16.42 -12 12 C-6.555 11.505 -6.555 11.505 -1 11 C-0.67 7.37 -0.34 3.74 0 0 Z " fill="#09C5EA" transform="translate(99,73)"/>
<path d="M0 0 C8.58 0 17.16 0 26 0 C27 2 27 2 26.50390625 3.92578125 C23.57138687 11.3605088 19.86210852 18.63033833 15 25 C14.01 25 13.02 25 12 25 C10.66552734 23.33520508 10.66552734 23.33520508 9.3359375 21.01953125 C8.85382813 20.18486328 8.37171875 19.35019531 7.875 18.49023438 C7.1325 17.16475586 7.1325 17.16475586 6.375 15.8125 C5.87226562 14.94818359 5.36953125 14.08386719 4.8515625 13.19335938 C0 4.68356225 0 4.68356225 0 0 Z " fill="#09E9F7" transform="translate(74,60)"/>
<path d="M0 0 C0.33 1.32 0.66 2.64 1 4 C10.24 4 19.48 4 29 4 C18.38395415 24.3008596 18.38395415 24.3008596 14 30 C13.34 30 12.68 30 12 30 C10.41373859 27.16829677 8.83154407 24.33434022 7.25 21.5 C6.8065625 20.70851563 6.363125 19.91703125 5.90625 19.1015625 C5.02227709 17.5156111 4.14528391 15.92574879 3.27539062 14.33203125 C2.43703426 12.79911012 1.58194425 11.27520138 0.70898438 9.76171875 C-0.453125 7.65625 -0.453125 7.65625 -2 4 C-1.09667969 1.77148438 -1.09667969 1.77148438 0 0 Z " fill="#0E03DC" transform="translate(31,81)"/>
<path d="M0 0 C0.99 0 1.98 0 3 0 C3.39058594 1.29744141 3.39058594 1.29744141 3.7890625 2.62109375 C5.01720546 6.04800878 6.5250358 8.93210206 8.375 12.0625 C8.96023437 13.06410156 9.54546875 14.06570312 10.1484375 15.09765625 C11.94486944 18.0487291 11.94486944 18.0487291 14.23046875 20.67578125 C16 23 16 23 15.9375 26.125 C15.01111203 28.96592312 14.31752588 30.18628409 12 32 C12.66 30.02 13.32 28.04 14 26 C5.09 25.67 -3.82 25.34 -13 25 C-11.04676571 19.14029714 -8.62454904 14.42669639 -5.5625 9.125 C-5.07201172 8.24585938 -4.58152344 7.36671875 -4.07617188 6.4609375 C-3.59857422 5.63078125 -3.12097656 4.800625 -2.62890625 3.9453125 C-2.19650635 3.18750488 -1.76410645 2.42969727 -1.31860352 1.64892578 C-0.66589478 0.83270752 -0.66589478 0.83270752 0 0 Z " fill="#3073F6" transform="translate(57,36)"/>
<path d="M0 0 C0.99 0 1.98 0 3 0 C4.60631936 2.87380221 6.20966215 5.74925477 7.8125 8.625 C8.26431641 9.43324219 8.71613281 10.24148437 9.18164062 11.07421875 C11.55640509 15.33839435 13.86268374 19.61175598 16 24 C15.01 25.32 14.02 26.64 13 28 C13 26.68 13 25.36 13 24 C4.75 24 -3.5 24 -12 24 C-12.33 24.99 -12.66 25.98 -13 27 C-14.6442351 22.06729471 -13.18615592 19.45975807 -11 15 C-10.34 15 -9.68 15 -9 15 C-8.67 14.01 -8.34 13.02 -8 12 C-7.34 11.67 -6.68 11.34 -6 11 C-5.71125 10.0925 -5.4225 9.185 -5.125 8.25 C-3.91625629 4.75807371 -2.56502364 2.64275163 0 0 Z " fill="#0CC5E8" transform="translate(87,37)"/>
<path d="M0 0 C9.24 0 18.48 0 28 0 C22.375 14.625 22.375 14.625 19.1875 19.3125 C18.58292969 20.21613281 17.97835937 21.11976562 17.35546875 22.05078125 C16.68451172 23.01564453 16.68451172 23.01564453 16 24 C12.6098221 22.8699407 12.35819745 22.43131381 10.625 19.5 C10.19703125 18.78199219 9.7690625 18.06398438 9.328125 17.32421875 C7.57019131 14.24783479 5.83829193 11.15870198 4.13671875 8.05078125 C3.19156683 6.34561026 2.19566601 4.66868858 1.1875 3 C0 1 0 1 0 0 Z " fill="#0952F6" transform="translate(44,61)"/>
<path d="M0 0 C9.27734375 -0.09765625 9.27734375 -0.09765625 12 0 C13 1 13 1 13.09765625 3.50390625 C13.08605469 4.51324219 13.07445313 5.52257812 13.0625 6.5625 C13.05347656 7.57441406 13.04445313 8.58632812 13.03515625 9.62890625 C13.02355469 10.41136719 13.01195313 11.19382812 13 12 C13.78246094 11.98839844 14.56492187 11.97679688 15.37109375 11.96484375 C16.38300781 11.95582031 17.39492187 11.94679688 18.4375 11.9375 C19.44683594 11.92589844 20.45617187 11.91429688 21.49609375 11.90234375 C24 12 24 12 25 13 C25.14393457 17.33530918 25.04212061 21.66157731 25 26 C20.71 25.67 16.42 25.34 12 25 C12 21.04 12 17.08 12 13 C8.04 13 4.08 13 0 13 C0 8.71 0 4.42 0 0 Z " fill="#2864DA" transform="translate(87,85)"/>
<path d="M0 0 C2.43119623 1.87015094 3.64069173 3.28138345 5 6 C5.40391526 9.63523738 5.23463713 11.56005537 3.5 14.8125 C0.58285166 17.36500479 -1.23064927 17.94149193 -5.03125 18.2109375 C-8.22582498 17.86866161 -9.85616798 16.27376123 -12 14 C-13.56935594 10.86128812 -13.35201103 8.46144178 -13 5 C-9.28222104 -0.46048784 -6.17499257 -0.8821418 0 0 Z " fill="#3773ED" transform="translate(392,65)"/>
<path d="M0 0 C1.76923828 0.01353516 1.76923828 0.01353516 3.57421875 0.02734375 C4.47785156 0.03894531 5.38148438 0.05054687 6.3125 0.0625 C6.45535714 8.63392857 6.45535714 8.63392857 5.3125 12.0625 C4.3225 12.0625 3.3325 12.0625 2.3125 12.0625 C1.9825 12.7225 1.6525 13.3825 1.3125 14.0625 C-1.23618779 15.79196672 -2.34006571 16.1098774 -5.4375 15.6875 C-6.55125 15.378125 -6.55125 15.378125 -7.6875 15.0625 C-8.0175 12.4225 -8.3475 9.7825 -8.6875 7.0625 C-9.3475 7.0625 -10.0075 7.0625 -10.6875 7.0625 C-10.3575 5.0825 -10.0275 3.1025 -9.6875 1.0625 C-6.26517028 -0.07827657 -3.60076783 -0.03565117 0 0 Z " fill="#13ADE0" transform="translate(287.6875,28.9375)"/>
<path d="M0 0 C2.14576637 -0.02685938 4.29162645 -0.04633088 6.4375 -0.0625 C7.63246094 -0.07410156 8.82742187 -0.08570312 10.05859375 -0.09765625 C13 0 13 0 14 1 C14.14355117 5.00220653 14.04216403 8.99441683 14 13 C9.05 12.67 4.1 12.34 -1 12 C-0.67 8.04 -0.34 4.08 0 0 Z " fill="#2ECFF3" transform="translate(99,73)"/>
<path d="M0 0 C2.35694954 0.09031574 4.71153582 0.24688128 7.0625 0.4375 C8.35285156 0.53933594 9.64320312 0.64117187 10.97265625 0.74609375 C12.47119141 0.87177734 12.47119141 0.87177734 14 1 C14 1.66 14 2.32 14 3 C13.34 3 12.68 3 12 3 C12.33 6.63 12.66 10.26 13 14 C8.71 13.67 4.42 13.34 0 13 C-0.87890625 3.72265625 -0.87890625 3.72265625 -1 1 C-0.67 0.67 -0.34 0.34 0 0 Z " fill="#0FACE1" transform="translate(100,84)"/>
<path d="M0 0 C5.94 0 11.88 0 18 0 C22.00390625 6.73828125 22.00390625 6.73828125 23 9 C22.67 9.99 22.34 10.98 22 12 C21.67 10.68 21.34 9.36 21 8 C20.34 8 19.68 8 19 8 C18.01 6.02 17.02 4.04 16 2 C11.05 1.67 6.1 1.34 1 1 C1 30.37 1 59.74 1 90 C5.29 90 9.58 90 14 90 C14 90.33 14 90.66 14 91 C9.38 91 4.76 91 0 91 C0 60.97 0 30.94 0 0 Z " fill="#184FD0" transform="translate(436,28)"/>
<path d="M0 0 C2.64 0 5.28 0 8 0 C7.29875 0.66 6.5975 1.32 5.875 2 C-1.41447193 9.3517751 -4.97727206 15.72263859 -5.375 26.25 C-5.25042634 33.97356677 -3.20345462 40.24596621 0.6875 46.875 C6.63392922 52.33928631 13.15702772 54.63059214 21 56 C17.90521121 57.03159626 16.47368607 56.97482862 13.3125 56.5625 C12.50425781 56.46066406 11.69601562 56.35882813 10.86328125 56.25390625 C10.24839844 56.17011719 9.63351562 56.08632812 9 56 C9 55.34 9 54.68 9 54 C7.68 54 6.36 54 5 54 C2.5625 51.75 2.5625 51.75 0 49 C-0.9075 48.38125 -1.815 47.7625 -2.75 47.125 C-5.76496514 44.27753292 -5.69533727 42.03678119 -6 38 C-6.33 37.67 -6.66 37.34 -7 37 C-7.08713831 35.29227642 -7.10700007 33.58101351 -7.09765625 31.87109375 C-7.09443359 30.83662109 -7.09121094 29.80214844 -7.08789062 28.73632812 C-7.07951172 27.64771484 -7.07113281 26.55910156 -7.0625 25.4375 C-7.05798828 24.34501953 -7.05347656 23.25253906 -7.04882812 22.12695312 C-7.03699826 19.41791505 -7.02051543 16.70898401 -7 14 C-6.34 14 -5.68 14 -5 14 C-3.19769832 10.17010894 -2.80377759 7.21878192 -3 3 C-2.01 3.33 -1.02 3.66 0 4 C0 2.68 0 1.36 0 0 Z " fill="#4776DB" transform="translate(368,47)"/>
<path d="M0 0 C0.33 0 0.66 0 1 0 C1.02312428 9.89189376 1.04091552 19.78378114 1.05181217 29.67569637 C1.05704082 34.2684264 1.06413812 38.861138 1.07543945 43.45385742 C1.086269 47.88233688 1.09227698 52.31079856 1.09487724 56.73929024 C1.09673137 58.43265628 1.10035175 60.12602129 1.10573006 61.81937981 C1.1129414 64.18291232 1.1139909 66.54637045 1.11352539 68.90991211 C1.11712067 69.61697296 1.12071594 70.32403381 1.12442017 71.05252075 C1.11405216 75.88594784 1.11405216 75.88594784 0 77 C-3.00331018 77.14193337 -5.99217134 77.04236378 -9 77 C-9 81.62 -9 86.24 -9 91 C-9.66 91 -10.32 91 -11 91 C-11.02685095 88.52076199 -11.04676547 86.0418116 -11.0625 83.5625 C-11.07506836 82.50192383 -11.07506836 82.50192383 -11.08789062 81.41992188 C-11.09653588 79.61306441 -11.05220011 77.80612397 -11 76 C-10.505 75.505 -10.505 75.505 -10 75 C-6.7 75 -3.4 75 0 75 C0 50.25 0 25.5 0 0 Z " fill="#48D2E8" transform="translate(314,28)"/>
<path d="M0 0 C0.33 0 0.66 0 1 0 C1 21.12 1 42.24 1 64 C3.97 64 6.94 64 10 64 C11 65 11 65 11.09765625 68.37890625 C11.09098369 69.77347077 11.07902532 71.16801743 11.0625 72.5625 C11.05798828 73.27341797 11.05347656 73.98433594 11.04882812 74.71679688 C11.03700864 76.47790013 11.01907263 78.23896036 11 80 C10.67 80 10.34 80 10 80 C10 75.38 10 70.76 10 66 C7.5559375 66.0309375 7.5559375 66.0309375 5.0625 66.0625 C3.37500659 66.08386068 1.68608966 66.07205511 0 66 C-1.95054593 64.04945407 -1.13289975 61.05448674 -1.13867188 58.45703125 C-1.13416016 57.48121094 -1.12964844 56.50539062 -1.125 55.5 C-1.12306641 54.48292969 -1.12113281 53.46585938 -1.11914062 52.41796875 C-1.02843648 34.94230426 -0.47403167 17.46857146 0 0 Z " fill="#54E6EF" transform="translate(332,39)"/>
<path d="M0 0 C3.63 0 7.26 0 11 0 C11 3.63 11 7.26 11 11 C7.37 11 3.74 11 0 11 C0 7.37 0 3.74 0 0 Z " fill="#0735F4" transform="translate(100,98)"/>
<path d="M0 0 C1.32 0 2.64 0 4 0 C5.45227 3.66237814 6.89447977 7.32853857 8.32739258 10.99853516 C9.05732851 12.86179904 9.79523967 14.72193214 10.53320312 16.58203125 C10.98759766 17.74863281 11.44199219 18.91523437 11.91015625 20.1171875 C12.54642944 21.73536377 12.54642944 21.73536377 13.19555664 23.38623047 C14 26 14 26 13 28 C12.18071114 26.75443908 11.36984814 25.50333365 10.5625 24.25 C10.11003906 23.55390625 9.65757812 22.8578125 9.19140625 22.140625 C8 20 8 20 7.52734375 17.859375 C7.10405496 15.60055536 7.10405496 15.60055536 4 14 C3.875 10.5625 3.875 10.5625 4 7 C3.67 6.01 3.34 5.02 3 4 C2.34 3.67 1.68 3.34 1 3 C0.89042969 3.68707031 0.78085938 4.37414063 0.66796875 5.08203125 C0.50941406 5.98308594 0.35085937 6.88414063 0.1875 7.8125 C0.03667969 8.70582031 -0.11414063 9.59914063 -0.26953125 10.51953125 C-1.08398159 13.28517813 -1.99104526 14.02637863 -4 16 C-5.1465985 18.68736102 -5.1465985 18.68736102 -6.0625 21.625 C-6.65405856 23.43531174 -7.28920988 25.23309662 -8 27 C-8.66 27.33 -9.32 27.66 -10 28 C-7.46277869 18.38272302 -3.66846291 9.22643548 0 0 Z " fill="#1C2CC7" transform="translate(174,28)"/>
<path d="M0 0 C-0.33 3.63 -0.66 7.26 -1 11 C-7.93359375 11.09765625 -7.93359375 11.09765625 -10 11 C-11 10 -11 10 -11.09765625 7.93359375 C-11.08605469 7.10988281 -11.07445313 6.28617187 -11.0625 5.4375 C-11.05347656 4.61121094 -11.04445313 3.78492187 -11.03515625 2.93359375 C-11.02355469 2.29550781 -11.01195313 1.65742187 -11 1 C-7.2735915 -0.04702186 -3.86986958 -0.07442057 0 0 Z " fill="#0652F9" transform="translate(100,86)"/>
<path d="M0 0 C7.26 0 14.52 0 22 0 C22 0.99 22 1.98 22 3 C18.04 2.67 14.08 2.34 10 2 C9.67 2.66 9.34 3.32 9 4 C8.01268258 5.34275169 7.01405257 6.67732273 6 8 C7.32 7.67 8.64 7.34 10 7 C10.66 8.98 11.32 10.96 12 13 C11.01 13.66 10.02 14.32 9 15 C7.49428254 12.87885041 5.99531321 10.75346385 4.5 8.625 C4.07074219 8.02171875 3.64148438 7.4184375 3.19921875 6.796875 C0 2.2265625 0 2.2265625 0 0 Z " fill="#2EA9CF" transform="translate(227,45)"/>
<path d="M0 0 C1.32 0.33 2.64 0.66 4 1 C4 2.32 4 3.64 4 5 C4.66 5 5.32 5 6 5 C6.38091797 6.03060547 6.38091797 6.03060547 6.76953125 7.08203125 C7.11371094 7.98308594 7.45789063 8.88414063 7.8125 9.8125 C8.14894531 10.70582031 8.48539062 11.59914063 8.83203125 12.51953125 C9.83691665 15.01674765 9.83691665 15.01674765 11.59375 16.59375 C13.93338079 18.93338079 13.70089467 21.82948355 14 25 C8.29912287 19.29912287 5.60555128 11.21110255 2 4 C1.67 19.51 1.34 35.02 1 51 C0.67 51 0.34 51 0 51 C0 34.17 0 17.34 0 0 Z " fill="#2357D3" transform="translate(453,68)"/>
<path d="M0 0 C2.05123248 2.05123248 2.64147118 3.27005063 3.625 5.9375 C4.01558594 6.97197266 4.01558594 6.97197266 4.4140625 8.02734375 C5 10 5 10 5 13 C-1.27 13 -7.54 13 -14 13 C-14.99 9.37 -15.98 5.74 -17 2 C-16.01 2 -15.02 2 -14 2 C-13.67 4.97 -13.34 7.94 -13 11 C-8.05 11 -3.1 11 2 11 C1.34 9.02 0.68 7.04 0 5 C-0.125 2.125 -0.125 2.125 0 0 Z " fill="#1C2DBE" transform="translate(207,106)"/>
<path d="M0 0 C1.02673828 0.03158203 2.05347656 0.06316406 3.11132812 0.09570312 C5.63965184 0.17802064 8.1620986 0.29290989 10.6875 0.4375 C9.93056519 3.86726269 8.8023058 5.90796069 6.625 8.6875 C6.07714844 9.39390625 5.52929688 10.1003125 4.96484375 10.828125 C4.54332031 11.35921875 4.12179687 11.8903125 3.6875 12.4375 C3.6875 8.69588897 4.20088171 5.14796443 4.6875 1.4375 C-3.2325 1.9325 -3.2325 1.9325 -11.3125 2.4375 C-11.9725 4.0875 -12.6325 5.7375 -13.3125 7.4375 C-14.3025 7.4375 -15.2925 7.4375 -16.3125 7.4375 C-12.23463472 -0.46058766 -8.47644007 -0.49350995 0 0 Z " fill="#30A9CB" transform="translate(289.3125,27.5625)"/>
<path d="M0 0 C-1.44202476 4.15151338 -3.5010438 7.29978445 -6.125 10.8125 C-7.21167969 12.27623047 -7.21167969 12.27623047 -8.3203125 13.76953125 C-8.87460938 14.50558594 -9.42890625 15.24164063 -10 16 C-10.97591583 12.61682513 -10.85856655 10.4342662 -10 7 C-9.34 7 -8.68 7 -8 7 C-7.9175 6.21625 -7.835 5.4325 -7.75 4.625 C-7 2 -7 2 -5.125 0.6875 C-3 0 -3 0 0 0 Z " fill="#24A9D7" transform="translate(252,96)"/>
<path d="M0 0 C0.99 0 1.98 0 3 0 C3.12375 0.928125 3.2475 1.85625 3.375 2.8125 C3.81533082 6.13925235 3.81533082 6.13925235 6 9 C5.67 9.66 5.34 10.32 5 11 C4.154375 10.814375 3.30875 10.62875 2.4375 10.4375 C-1.79457097 11.1300207 -2.32651879 12.18334116 -4.875 15.5 C-5.93516439 16.98698383 -6.98283393 18.48327899 -8 20 C-8 15.38385429 -4.82412947 12.37798394 -2.11132812 8.82617188 C0.40334922 5.54954538 0.40334922 5.54954538 0.77734375 1.58984375 C0.52082031 1.06519531 0.26429688 0.54054688 0 0 Z " fill="#2BAAD4" transform="translate(244,70)"/>
<path d="M0 0 C3.97988422 5.96982633 4.32621323 12.52648984 4.25 19.5 C4.25773437 20.20769531 4.26546875 20.91539063 4.2734375 21.64453125 C4.25487843 26.72043696 3.3855165 31.11770376 2 36 C1.67 36 1.34 36 1 36 C0.34 33.36 -0.32 30.72 -1 28 C0.32 27.67 1.64 27.34 3 27 C3 22.05 3 17.1 3 12 C2.34 12 1.68 12 1 12 C0.67 8.04 0.34 4.08 0 0 Z " fill="#4170D4" transform="translate(428,54)"/>
<path d="M0 0 C1.47906892 -0.02689216 2.95827483 -0.04634621 4.4375 -0.0625 C5.26121094 -0.07410156 6.08492187 -0.08570312 6.93359375 -0.09765625 C9 0 9 0 10 1 C10.09873816 2.99799572 10.12971799 4.99957158 10.125 7 C10.12757812 8.093125 10.13015625 9.18625 10.1328125 10.3125 C10 13 10 13 9 14 C7.14712498 14.07226502 5.29166122 14.0838122 3.4375 14.0625 C2.42558594 14.05347656 1.41367188 14.04445313 0.37109375 14.03515625 C-0.41136719 14.02355469 -1.19382812 14.01195313 -2 14 C-2 13.67 -2 13.34 -2 13 C1.3 13 4.6 13 8 13 C7.67 9.7 7.34 6.4 7 3 C4.36 2.67 1.72 2.34 -1 2 C-0.67 1.34 -0.34 0.68 0 0 Z " fill="#2EC5DA" transform="translate(115,84)"/>
<path d="M0 0 C0.66 0.99 1.32 1.98 2 3 C2.66 3.33 3.32 3.66 4 4 C4 5.32 4 6.64 4 8 C3.01 8 2.02 8 1 8 C1 8.66 1 9.32 1 10 C0.34 10 -0.32 10 -1 10 C-1.33 12.31 -1.66 14.62 -2 17 C-3.32 17.33 -4.64 17.66 -6 18 C-4.23536928 11.89262558 -2.30442525 5.92566493 0 0 Z " fill="#1528E1" transform="translate(156,74)"/>
<path d="M0 0 C0 0.99 0 1.98 0 3 C-2.97 3 -5.94 3 -9 3 C-9 7.62 -9 12.24 -9 17 C-9.66 17 -10.32 17 -11 17 C-11.02685095 14.52076199 -11.04676547 12.0418116 -11.0625 9.5625 C-11.07506836 8.50192383 -11.07506836 8.50192383 -11.08789062 7.41992188 C-11.09653588 5.61306441 -11.05220011 3.80612397 -11 2 C-9.33657163 0.33657163 -7.2174291 0.63951903 -4.9375 0.4375 C-3.55884766 0.31181641 -3.55884766 0.31181641 -2.15234375 0.18359375 C-1.44207031 0.12300781 -0.73179687 0.06242187 0 0 Z " fill="#3CCBDC" transform="translate(314,102)"/>
<path d="M0 0 C2.35694954 0.09031574 4.71153582 0.24688128 7.0625 0.4375 C8.35285156 0.53933594 9.64320312 0.64117187 10.97265625 0.74609375 C12.47119141 0.87177734 12.47119141 0.87177734 14 1 C14 1.66 14 2.32 14 3 C13.34 3 12.68 3 12 3 C12.33 6.63 12.66 10.26 13 14 C12.34 14 11.68 14 11 14 C11 10.04 11 6.08 11 2 C7.7 2 4.4 2 1 2 C1 5.3 1 8.6 1 12 C3.97 12 6.94 12 10 12 C10 12.33 10 12.66 10 13 C6.7 13 3.4 13 0 13 C-0.19397476 11.02145742 -0.38001321 9.0421352 -0.5625 7.0625 C-0.66691406 5.96035156 -0.77132812 4.85820313 -0.87890625 3.72265625 C-0.91886719 2.82417969 -0.95882812 1.92570312 -1 1 C-0.67 0.67 -0.34 0.34 0 0 Z " fill="#19B1EB" transform="translate(100,84)"/>
<path d="M0 0 C0.33 0 0.66 0 1 0 C1 1.98 1 3.96 1 6 C2.37285156 5.98259766 2.37285156 5.98259766 3.7734375 5.96484375 C5.55621094 5.95130859 5.55621094 5.95130859 7.375 5.9375 C8.55835938 5.92589844 9.74171875 5.91429688 10.9609375 5.90234375 C14 6 14 6 16 7 C16.33 6.34 16.66 5.68 17 5 C17 5.99 17 6.98 17 8 C10.73 8 4.46 8 -2 8 C-1 2 -1 2 0 0 Z " fill="#1C2BC0" transform="translate(142,111)"/>
<path d="M0 0 C0.66 0.33 1.32 0.66 2 1 C-3.94 10.9 -3.94 10.9 -10 21 C-10.33 20.34 -10.66 19.68 -11 19 C-10.2578125 16.9765625 -10.2578125 16.9765625 -9.125 14.625 C-7.75438442 11.75916741 -6.66759978 9.11073087 -6 6 C-5.01 6 -4.02 6 -3 6 C-3 4.68 -3 3.36 -3 2 C-2.01 1.34 -1.02 0.68 0 0 Z " fill="#1B19B5" transform="translate(58,85)"/>
<path d="M0 0 C0.33 0 0.66 0 1 0 C1 1.98 1 3.96 1 6 C0.01 6 -0.98 6 -2 6 C-2.0825 6.61875 -2.165 7.2375 -2.25 7.875 C-3 10 -3 10 -4.9375 10.9375 C-7.26452391 11.87279303 -7.26452391 11.87279303 -8.25 14.625 C-8.4975 15.40875 -8.745 16.1925 -9 17 C-9.99 17 -10.98 17 -12 17 C-12.33 15.68 -12.66 14.36 -13 13 C-12.01 13.33 -11.02 13.66 -10 14 C-9.28972656 12.989375 -8.57945312 11.97875 -7.84765625 10.9375 C-6.91944443 9.62487722 -5.99104959 8.31238386 -5.0625 7 C-4.59392578 6.33226562 -4.12535156 5.66453125 -3.64257812 4.9765625 C-2.45337627 3.29970233 -1.22940446 1.64761213 0 0 Z " fill="#2BAACF" transform="translate(268,42)"/>
<path d="M0 0 C2.96308981 2.77068138 5.08584662 5.49820781 7.125 9 C7.62257813 9.845625 8.12015625 10.69125 8.6328125 11.5625 C9.30957031 12.7690625 9.30957031 12.7690625 10 14 C10.40992187 14.70125 10.81984375 15.4025 11.2421875 16.125 C12 18 12 18 11 21 C0 5.64325843 0 5.64325843 0 0 Z " fill="#2096EE" transform="translate(60,37)"/>
<path d="M0 0 C0.33 0 0.66 0 1 0 C1 8.58 1 17.16 1 26 C-4.28 25.67 -9.56 25.34 -15 25 C-15 24.67 -15 24.34 -15 24 C-10.38 23.67 -5.76 23.34 -1 23 C-0.67 15.41 -0.34 7.82 0 0 Z " fill="#0F50ED" transform="translate(452,93)"/>
<path d="M0 0 C1 3 1 3 0.14453125 5.12109375 C-2.21546671 9.22513713 -4.34648941 12.88775024 -8 16 C-7.67 14.68 -7.34 13.36 -7 12 C-7.66 11.67 -8.32 11.34 -9 11 C-7.68 11 -6.36 11 -5 11 C-4.67 8.03 -4.34 5.06 -4 2 C-3.01 2 -2.02 2 -1 2 C-0.67 1.34 -0.34 0.68 0 0 Z " fill="#3C73E1" transform="translate(428,90)"/>
<path d="M0 0 C0.99 0 1.98 0 3 0 C1.10463724 6.51819877 -1.5178994 12.17814801 -5 18 C-5.66 16.68 -6.32 15.36 -7 14 C-6.34 13.34 -5.68 12.68 -5 12 C-2.82756286 8.23444229 -1.49160302 4.06800824 0 0 Z " fill="#144CE8" transform="translate(505,87)"/>
<path d="M0 0 C0.33 0 0.66 0 1 0 C1 2.64 1 5.28 1 8 C0.34 8 -0.32 8 -1 8 C-1 8.66 -1 9.32 -1 10 C-1.99 10.33 -2.98 10.66 -4 11 C-4.99 10.34 -5.98 9.68 -7 9 C-7.6875 5.375 -7.6875 5.375 -8 2 C-5 5.75 -5 5.75 -5 8 C-4.34 8 -3.68 8 -3 8 C-2.690625 7.05125 -2.38125 6.1025 -2.0625 5.125 C-1 2 -1 2 0 0 Z M2 5 C2.33 5.66 2.66 6.32 3 7 C2.34 6.67 1.68 6.34 1 6 C1.33 5.67 1.66 5.34 2 5 Z " fill="#1D56E0" transform="translate(490,85)"/>
<path d="M0 0 C2.31 0 4.62 0 7 0 C7.36552803 1.41377782 7.71695495 2.83120576 8.0625 4.25 C8.25972656 5.03890625 8.45695312 5.8278125 8.66015625 6.640625 C9.01497267 9.10394822 8.76877544 10.65604132 8 13 C7.51080078 12.09507813 7.51080078 12.09507813 7.01171875 11.171875 C6.57472656 10.37265625 6.13773437 9.5734375 5.6875 8.75 C5.25824219 7.96109375 4.82898438 7.1721875 4.38671875 6.359375 C3.0603786 4.10272866 1.61115776 2.06001403 0 0 Z " fill="#396FE7" transform="translate(404,50)"/>
<path d="M0 0 C5.94 0 11.88 0 18 0 C22.00390625 6.73828125 22.00390625 6.73828125 23 9 C22.67 9.99 22.34 10.98 22 12 C21.67 10.68 21.34 9.36 21 8 C20.34 8 19.68 8 19 8 C18.51080078 6.54207031 18.51080078 6.54207031 18.01171875 5.0546875 C16.24089692 1.58680702 16.24089692 1.58680702 12.20703125 1.1953125 C10.74295894 1.14231441 9.2775223 1.11988202 7.8125 1.125 C7.06291016 1.104375 6.31332031 1.08375 5.54101562 1.0625 C3.69449213 1.01545482 1.84711781 1.00425113 0 1 C0 0.67 0 0.34 0 0 Z " fill="#1F50DD" transform="translate(436,28)"/>
<path d="M0 0 C0.33 0.99 0.66 1.98 1 3 C-1.86793501 4.43396751 -3.88195423 3.55024337 -7 3 C-8.66627298 2.96377667 -10.33405374 2.95100158 -12 3 C-11.67 2.01 -11.34 1.02 -11 0 C-7.38357376 -1.6691198 -3.79425988 -0.65669883 0 0 Z " fill="#3173FC" transform="translate(393,67)"/>
<path d="M0 0 C0.33 0 0.66 0 1 0 C1 5.61 1 11.22 1 17 C1.66 17 2.32 17 3 17 C3.33 20.96 3.66 24.92 4 29 C0.10969621 25.10969621 -0.11499385 19.34293621 -0.1953125 14.0625 C-0.18223024 12.37488795 -0.15869469 10.68732636 -0.125 9 C-0.11597656 8.12988281 -0.10695313 7.25976562 -0.09765625 6.36328125 C-0.07434619 4.2420658 -0.03848579 2.12099438 0 0 Z " fill="#4377DB" transform="translate(344,64)"/>
<path d="M0 0 C0.66 0.99 1.32 1.98 2 3 C2.639375 3.845625 3.27875 4.69125 3.9375 5.5625 C6.69192024 9.63739136 7.7709878 14.28878657 9 19 C5.92812134 16.03967001 3.47072605 13.05942648 2.5 8.8125 C2.10093354 6.59453719 2.10093354 6.59453719 -1 5 C-0.67 3.35 -0.34 1.7 0 0 Z " fill="#182ACD" transform="translate(179,37)"/>
<path d="M0 0 C2.64 0 5.28 0 8 0 C4.83047153 3.26008643 1.60062011 6.22237877 -2 9 C-2.33 7.02 -2.66 5.04 -3 3 C-2.01 3.33 -1.02 3.66 0 4 C0 2.68 0 1.36 0 0 Z " fill="#3F6DE8" transform="translate(368,47)"/>
<path d="M0 0 C1.32 0 2.64 0 4 0 C4.86343824 2.12124966 5.71550648 4.24713072 6.5625 6.375 C7.27599609 8.15003906 7.27599609 8.15003906 8.00390625 9.9609375 C9 13 9 13 8 15 C7.35165346 13.730447 6.70642185 12.45930294 6.0625 11.1875 C5.70285156 10.47980469 5.34320313 9.77210937 4.97265625 9.04296875 C4 7 4 7 3 4 C1.68 4.33 0.36 4.66 -1 5 C-0.67 3.35 -0.34 1.7 0 0 Z " fill="#242FBC" transform="translate(174,28)"/>
<path d="M0 0 C2.20161997 2.20161997 2.29468629 3.09058096 3 6 C3.99 7.485 3.99 7.485 5 9 C5 9.99 5 10.98 5 12 C5.99 12 6.98 12 8 12 C7.67 12.99 7.34 13.98 7 15 C6.34 15 5.68 15 5 15 C2.69 10.38 0.38 5.76 -2 1 C-1.34 0.67 -0.68 0.34 0 0 Z " fill="#1D1AAE" transform="translate(38,96)"/>
<path d="M0 0 C0.33 0 0.66 0 1 0 C1 2.97 1 5.94 1 9 C1.66 9 2.32 9 3 9 C3.33 11.97 3.66 14.94 4 18 C1.50063756 15.50063756 0.96276247 13.35191992 -0.125 10 C-0.47820312 8.9275 -0.83140625 7.855 -1.1953125 6.75 C-2 4 -2 4 -2 2 C-1.34 2 -0.68 2 0 2 C0 1.34 0 0.68 0 0 Z " fill="#1C2DC9" transform="translate(186,89)"/>
<path d="M0 0 C0.185625 0.8353125 0.185625 0.8353125 0.375 1.6875 C1.36991762 5.36869519 2.27565846 8.27565846 5 11 C5.125 13.625 5.125 13.625 5 16 C1.64184157 12.1786473 -0.42844806 8.80196427 -2 4 C-1.1875 1.5625 -1.1875 1.5625 0 0 Z " fill="#2222B5" transform="translate(31,81)"/>
<path d="M0 0 C0.66 0.33 1.32 0.66 2 1 C1.24203125 1.70576172 1.24203125 1.70576172 0.46875 2.42578125 C-0.1809375 3.04839844 -0.830625 3.67101563 -1.5 4.3125 C-2.1496875 4.92738281 -2.799375 5.54226562 -3.46875 6.17578125 C-5.3214614 7.98601529 -5.3214614 7.98601529 -5 11 C-5.99 11 -6.98 11 -8 11 C-8 11.66 -8 12.32 -8 13 C-8.66 13 -9.32 13 -10 13 C-8.65515286 8.95838045 -6.9494838 6.61321846 -3.875 3.6875 C-3.15054687 2.99011719 -2.42609375 2.29273438 -1.6796875 1.57421875 C-1.12539063 1.05472656 -0.57109375 0.53523438 0 0 Z " fill="#4776DF" transform="translate(361,35)"/>
<path d="M0 0 C0.33 0 0.66 0 1 0 C1.45374191 5.67177385 0.65083143 8.5975268 -3 13 C-3.66 13 -4.32 13 -5 13 C-4.54554036 11.58208592 -4.08625056 10.16571954 -3.625 8.75 C-3.24214844 7.56664062 -3.24214844 7.56664062 -2.8515625 6.359375 C-2.04826333 4.13372042 -1.10288338 2.09068328 0 0 Z " fill="#1B52DB" transform="translate(514,33)"/>
<path d="M0 0 C0.33 0 0.66 0 1 0 C1.125 6.75 1.125 6.75 0 9 C-1.64363134 9.72159424 -3.31050386 10.39351421 -5 11 C-3.77782954 6.95743617 -2.37245704 3.50711041 0 0 Z " fill="#1D3ED2" transform="translate(38,69)"/>
<path d="M0 0 C0 3 0 3 -2.125 6.375 C-3.26976705 8.16089975 -3.26976705 8.16089975 -4 10 C-3.41245546 12.89483819 -3.41245546 12.89483819 -2 15 C-4 13.375 -4 13.375 -6 11 C-6.25 7.75 -6.25 7.75 -6 5 C-5.01 5 -4.02 5 -3 5 C-2.5359375 4.0409375 -2.5359375 4.0409375 -2.0625 3.0625 C-1 1 -1 1 0 0 Z " fill="#39A5D0" transform="translate(274,64)"/>
<path d="M0 0 C0.598125 0.33 1.19625 0.66 1.8125 1 C4.05386471 2.20787988 4.05386471 2.20787988 7 2 C9.7839183 3.39195915 9.97898997 5.15575779 11 8 C6.40378078 6.5129879 3.53027653 4.20187872 0 1 C0 0.67 0 0.34 0 0 Z " fill="#3D73DD" transform="translate(357,107)"/>
<path d="M0 0 C0.66 0.33 1.32 0.66 2 1 C-0.53645881 4.10011632 -3.15184135 5.0575938 -7 6 C-9.19140625 5.546875 -9.19140625 5.546875 -11 5 C-9.730447 4.35165346 -8.45930294 3.70642185 -7.1875 3.0625 C-6.47980469 2.70285156 -5.77210938 2.34320312 -5.04296875 1.97265625 C-3 1 -3 1 0 0 Z " fill="#4376E0" transform="translate(374,29)"/>
<path d="M0 0 C1.25955231 3.77865693 0.48087189 5.03411786 -0.9375 8.6875 C-1.31777344 9.68136719 -1.69804687 10.67523438 -2.08984375 11.69921875 C-2.39019531 12.45847656 -2.69054687 13.21773437 -3 14 C-3.33 14 -3.66 14 -4 14 C-4.38338879 8.76035318 -3.26296201 5.61644249 -1 1 C-0.67 0.67 -0.34 0.34 0 0 Z " fill="#1C29C5" transform="translate(171,79)"/>
<path d="M0 0 C0.33 1.32 0.66 2.64 1 4 C2.98 3.67 4.96 3.34 7 3 C6.34 4.65 5.68 6.3 5 8 C4.01 8 3.02 8 2 8 C0.25 5.6875 0.25 5.6875 -1 3 C-0.67 2.01 -0.34 1.02 0 0 Z " fill="#2FD1E8" transform="translate(84,77)"/>
<path d="M0 0 C6 7.71428571 6 7.71428571 6 11 C5.34 11 4.68 11 4 11 C2.375 9 2.375 9 1 7 C0.01 7.495 0.01 7.495 -1 8 C-0.67 5.36 -0.34 2.72 0 0 Z " fill="#25BBD6" transform="translate(89,37)"/>
<path d="M0 0 C0.99 0 1.98 0 3 0 C3.3125 2.6875 3.3125 2.6875 3 6 C0.5 8.875 0.5 8.875 -2 11 C-1.34 7.37 -0.68 3.74 0 0 Z " fill="#25A7D5" transform="translate(294,29)"/>
<path d="M0 0 C1.32 0.66 2.64 1.32 4 2 C4 1.34 4 0.68 4 0 C4.66 0.33 5.32 0.66 6 1 C4.1875 4 4.1875 4 2 7 C1.01 7 0.02 7 -1 7 C-0.67 4.69 -0.34 2.38 0 0 Z " fill="#2BA8D1" transform="translate(235,112)"/>
<path d="M0 0 C0 0.99 0 1.98 0 3 C-5.10334017 4.905247 -9.46342706 6.42589023 -15 6 C-15 5.67 -15 5.34 -15 5 C-14.31292969 4.80664062 -13.62585938 4.61328125 -12.91796875 4.4140625 C-12.01691406 4.15367188 -11.11585938 3.89328125 -10.1875 3.625 C-9.29417969 3.36976562 -8.40085937 3.11453125 -7.48046875 2.8515625 C-4.71284429 1.90141741 -2.93719844 0 0 0 Z " fill="#4A75DD" transform="translate(405,97)"/>
<path d="M0 0 C0.99 0.66 1.98 1.32 3 2 C1.85821872 3.66944521 0.71147095 5.3354948 -0.4375 7 C-1.07558594 7.928125 -1.71367187 8.85625 -2.37109375 9.8125 C-2.90863281 10.534375 -3.44617188 11.25625 -4 12 C-4.33 12 -4.66 12 -5 12 C-5 10.02 -5 8.04 -5 6 C-4.360625 5.7525 -3.72125 5.505 -3.0625 5.25 C-0.81258459 4.18437567 -0.81258459 4.18437567 -0.25 1.875 C-0.1675 1.25625 -0.085 0.6375 0 0 Z " fill="#32A7CC" transform="translate(289,40)"/>
<path d="M0 0 C1.35015859 4.05047576 0.62084998 6.7920168 0 11 C-1.32 11.33 -2.64 11.66 -4 12 C-3.52309796 10.37433394 -3.04340334 8.74948689 -2.5625 7.125 C-2.29566406 6.22007813 -2.02882812 5.31515625 -1.75390625 4.3828125 C-1 2 -1 2 0 0 Z " fill="#1E2CCA" transform="translate(154,80)"/>
<path d="M0 0 C0.33 0.66 0.66 1.32 1 2 C0.00390625 4.3828125 0.00390625 4.3828125 -1.4375 7.125 C-1.91058594 8.03507812 -2.38367188 8.94515625 -2.87109375 9.8828125 C-3.24363281 10.58148438 -3.61617188 11.28015625 -4 12 C-4.33 12 -4.66 12 -5 12 C-4.67 9.69 -4.34 7.38 -4 5 C-3.34 5 -2.68 5 -2 5 C-2 3.68 -2 2.36 -2 1 C-1.34 0.67 -0.68 0.34 0 0 Z " fill="#1F55D4" transform="translate(513,75)"/>
<path d="M0 0 C0.99 0.33 1.98 0.66 3 1 C2.01 3.97 1.02 6.94 0 10 C-0.33 10 -0.66 10 -1 10 C-1.02689216 8.52093108 -1.04634621 7.04172517 -1.0625 5.5625 C-1.07410156 4.73878906 -1.08570312 3.91507813 -1.09765625 3.06640625 C-1 1 -1 1 0 0 Z " fill="#22E2F2" transform="translate(98,60)"/>
<path d="M0 0 C2.1385485 2.1385485 2.42655063 3.13275314 3 6 C2.01 6.66 1.02 7.32 0 8 C-0.99 6.35 -1.98 4.7 -3 3 C-2.34 3 -1.68 3 -1 3 C-0.67 2.01 -0.34 1.02 0 0 Z " fill="#22AADA" transform="translate(236,52)"/>
<path d="M0 0 C0.99 0 1.98 0 3 0 C2.67 2.97 2.34 5.94 2 9 C1.67 9 1.34 9 1 9 C0.63877119 7.68942607 0.28619689 6.37646376 -0.0625 5.0625 C-0.35833984 3.96615234 -0.35833984 3.96615234 -0.66015625 2.84765625 C-0.77230469 2.23792969 -0.88445312 1.62820312 -1 1 C-0.67 0.67 -0.34 0.34 0 0 Z " fill="#3B71E3" transform="translate(428,81)"/>
<path d="M0 0 C1.65 0 3.3 0 5 0 C4.01 1.485 4.01 1.485 3 3 C2.83286431 5.62531524 2.83286431 5.62531524 3 8 C0.9375 6.25 0.9375 6.25 -1 4 C-0.75 1.75 -0.75 1.75 0 0 Z " fill="#25E2F6" transform="translate(75,61)"/>
<path d="M0 0 C3 1 3 1 5 4 C5 4.99 5 5.98 5 7 C2.525 6.01 2.525 6.01 0 5 C0 3.35 0 1.7 0 0 Z " fill="#3F75EB" transform="translate(363,88)"/>
<path d="M0 0 C1.80125336 2.70188004 3.00243753 4.93057703 4 8 C3.67 8.99 3.34 9.98 3 11 C0.29417212 7.16674383 -0.32613618 4.67461851 0 0 Z " fill="#1A29C3" transform="translate(195,74)"/>
<path d="M0 0 C0.33 0 0.66 0 1 0 C1.3125 2.8125 1.3125 2.8125 1 6 C-1.5 7.875 -1.5 7.875 -4 9 C-2.80100302 5.9168649 -1.52299523 2.93720508 0 0 Z " fill="#1F40D8" transform="translate(43,60)"/>
<path d="M0 0 C0.33 0 0.66 0 1 0 C1 2.31 1 4.62 1 7 C-0.32 7.33 -1.64 7.66 -3 8 C-1.125 2.25 -1.125 2.25 0 0 Z " fill="#1B53D8" transform="translate(508,46)"/>
<path d="M0 0 C0.99 0.33 1.98 0.66 3 1 C3 1.99 3 2.98 3 4 C3.66 4 4.32 4 5 4 C5 5.65 5 7.3 5 9 C0.57142857 3.85714286 0.57142857 3.85714286 0 0 Z " fill="#33DBE6" transform="translate(78,69)"/>
<path d="M0 0 C2.15377564 2.62198774 3.40072174 4.64404172 4 8 C3.34 8 2.68 8 2 8 C2 7.34 2 6.68 2 6 C1.01 5.67 0.02 5.34 -1 5 C-0.67 3.35 -0.34 1.7 0 0 Z " fill="#1B52D9" transform="translate(467,56)"/>
<path d="M0 0 C0.33 0.66 0.66 1.32 1 2 C-0.98 4.97 -0.98 4.97 -3 8 C-3.99 7.01 -4.98 6.02 -6 5 C-5.67 4.34 -5.34 3.68 -5 3 C-4.01 3 -3.02 3 -2 3 C-1.34 2.01 -0.68 1.02 0 0 Z " fill="#3AA6CF" transform="translate(261,52)"/>
<path d="M0 0 C-2.97 2.475 -2.97 2.475 -6 5 C-6.66 4.67 -7.32 4.34 -8 4 C-7 1 -7 1 -4.5625 -0.25 C-2 -1 -2 -1 0 0 Z " fill="#4374DA" transform="translate(419,108)"/>
<path d="M0 0 C0.99928333 2.698065 1.03624754 3.88010429 0.1875 6.6875 C-1 9 -1 9 -3 10 C-2.39009109 6.44219804 -1.4216319 3.3171411 0 0 Z " fill="#222FC7" transform="translate(149,93)"/>
</svg>
